<?xml version="1.0" encoding="UTF-8"?>
<!DOCTYPE svg PUBLIC "-//W3C//DTD SVG 1.1//EN" "http://www.w3.org/Graphics/SVG/1.1/DTD/svg11.dtd">
<!-- Creator: CorelDRAW (Deneme Sürümü) -->
<svg xmlns="http://www.w3.org/2000/svg" xml:space="preserve" width="210mm" height="210mm" version="1.1" style="shape-rendering:geometricPrecision; text-rendering:geometricPrecision; image-rendering:optimizeQuality; fill-rule:evenodd; clip-rule:evenodd"
viewBox="0 0 21000 21000"
 xmlns:xlink="http://www.w3.org/1999/xlink"
 xmlns:xodm="http://www.corel.com/coreldraw/odm/2003">
 <defs>
  <style type="text/css">
   <![CDATA[
    .fil0 {fill:black;fill-rule:nonzero}
   ]]>
  </style>
 </defs>
 <g id="Katman_x0020_1">
  <metadata id="CorelCorpID_0Corel-Layer"/>
  <g id="_2033041628176">
   <path class="fil0" d="M9680.56 960.82c-1267.88,116.48 -2369.73,414.06 -3471.51,935.84 -1442.55,685.7 -2822.53,1897.47 -3771.26,3311.9 -774.06,1153.58 -1336.85,2740.57 -1492.1,4209 -51.71,485.14 -51.71,1498.57 -2.18,1936.21 185.46,1584.82 592.96,2798.79 1364.91,4073.13 769.74,1274.29 1893.15,2423.57 3081.27,3154.57 1953.49,1200.99 4088.14,1683.96 6285.37,1418.72 1830.58,-222.02 3460.72,-927.17 4883.82,-2113.08 1103.96,-920.69 1886.69,-1899.59 2503.32,-3137.3 420.47,-843.04 633.97,-1464.04 815.05,-2371.83 288.92,-1438.18 267.35,-2938.86 -62.48,-4249.86 -349.38,-1390.76 -955.23,-2602.53 -1839.27,-3674.24 -276.02,-334.2 -787.02,-877.55 -1015.6,-1078.1 -735.23,-644.69 -1375.69,-1073.73 -2177.78,-1459.74 -948.74,-459.29 -1796.15,-720.15 -2837.54,-877.57 -705.14,-107.82 -1595.6,-137.96 -2264.02,-77.65zm1584.82 250.14c756.78,64.69 1507.14,228.61 2369.63,515.31 437.74,146.65 633.91,228.58 1097.49,461.48 989.75,495.93 1919.03,1181.63 2598.24,1921.14 743.89,808.59 1134.19,1362.79 1556.85,2205.83 448.43,894.83 720.14,1785.35 873.27,2839.72 200.46,1408.02 17.19,3117.9 -480.86,4484.92 -480.86,1313.18 -1175.14,2393.4 -2197.22,3417.6 -814.99,815.07 -1591.23,1373.57 -2572.3,1843.56 -940.16,452.81 -1839.28,718.05 -2943.23,866.87 -364.45,49.53 -1615.05,56.02 -1994.51,10.78 -2100.19,-250.17 -3898.45,-1067.32 -5403.51,-2453.79 -1285.13,-1183.81 -2279.1,-2826.82 -2699.56,-4461.25 -383.83,-1487.79 -424.75,-3005.75 -120.77,-4396.51 172.5,-787.02 448.5,-1567.54 795.69,-2253.24 219.91,-435.53 362.18,-670.61 629.59,-1056.55 310.47,-444.2 595.07,-778.41 1006.93,-1188.09 1067.33,-1062.95 2279.12,-1811.22 3721.67,-2300.66 1166.47,-394.61 2546.45,-562.73 3762.6,-457.12z"/>
   <path class="fil0" d="M9766.8 1361.9c-439.9,34.54 -1239.82,163.91 -1617.15,258.74 -774.13,196.26 -1675.45,545.55 -2225.28,862.49 -1220.37,702.97 -2365.35,1768.1 -3126.51,2908.71 -834.43,1250.61 -1295.85,2555.11 -1474.83,4183.06 -40.93,370.93 -34.53,1360.59 10.78,1746.53 135.86,1144.97 388.12,2048.4 843.12,3040.26 334.21,726.71 931.46,1645.22 1407.94,2162.71 702.95,763.34 1153.58,1155.75 1895.36,1651.67 2065.67,1377.81 4780.3,1845.68 7225.43,1241.95 1630.12,-401.02 3139.47,-1276.46 4370.71,-2535.67 996.15,-1017.71 1686.14,-2160.5 2147.55,-3562.04 383.81,-1160.07 530.45,-2320.13 450.69,-3529.79 -120.79,-1837.08 -756.87,-3503.85 -1873.79,-4916.17 -237.18,-299.7 -692.1,-795.62 -974.61,-1062.95 -627.48,-599.45 -1356.21,-1104.05 -2190.74,-1522.33 -407.5,-202.64 -592.96,-278.11 -1125.52,-454.99 -679.21,-226.39 -1274.28,-360.06 -1964.27,-444.13 -342.88,-41.01 -1418.81,-58.2 -1778.88,-28.05zm1520.14 258.74c2078.54,187.6 3971.72,1047.97 5463.8,2479.65 685.7,657.65 1315.29,1489.99 1716.39,2268.34 478.66,929.35 752.48,1817.68 918.51,2979.87 45.3,327.81 64.68,1369.19 32.34,1763.8 -77.58,922.86 -303.98,1871.6 -653.36,2753.46 -342.81,866.87 -868.88,1727.15 -1507.17,2468.87 -217.8,252.34 -776.24,802.18 -1024.2,1004.82 -1291.53,1067.32 -2710.34,1724.97 -4256.32,1979.42 -556.33,90.55 -957.41,116.42 -1638.73,103.52 -983.27,-17.27 -1625.83,-125.08 -2578.87,-433.44 -985.37,-319.12 -2074.26,-897.01 -2833.23,-1507.15 -886.25,-711.55 -1679.73,-1647.39 -2216.61,-2615.51 -657.64,-1181.62 -1047.94,-2475.35 -1149.28,-3803.61 -32.34,-416.08 -15.07,-1293.72 32.34,-1655.91 226.41,-1735.75 862.49,-3245.1 1906.08,-4532.42 446.39,-547.66 1209.66,-1244.11 1880.28,-1712.01 827.94,-579.98 1645.12,-959.52 2680.11,-1244.12 1056.55,-288.98 2177.77,-392.41 3227.92,-297.58z"/>
   <path class="fil0" d="M9799.15 2179.08l-226.41 10.78 0 64.69c0,53.9 10.79,66.86 64.7,75.46l64.68 10.79 0 948.73 -64.68 10.78c-53.91,8.67 -66.9,21.56 -71.19,79.85l-6.48 68.97 543.36 0 -6.49 -68.97c-4.29,-53.91 -19.38,-69.07 -75.47,-84.14l-71.09 -19.38 2.12 -370.85c0,-226.4 8.66,-353.66 19.45,-327.81 10.78,23.74 73.27,204.84 142.26,403.28l122.88 362.18 245.86 0 60.39 -133.67c32.35,-73.29 101.32,-245.78 153.05,-381.65l92.72 -250.14 2.2 349.37 0 351.4 -64.69 0c-58.28,0 -64.69,6.49 -64.69,73.35l0 71.18 312.66 4.29 312.65 2.12 0 -62.51c0,-56.09 -8.67,-66.87 -75.47,-79.76l-73.35 -12.96 4.29 -465.7 4.37 -465.79 81.87 -19.36c62.58,-15.16 79.85,-30.23 79.85,-64.69 0,-25.94 -8.67,-58.27 -17.27,-71.17 -19.45,-32.35 -608.03,-30.23 -608.03,2.11 0,30.23 -217.83,599.45 -237.19,621.01 -8.67,8.67 -73.35,-131.48 -142.35,-312.65l-129.37 -329.92 -73.27 0c-41.01,0 -176.88,4.38 -301.87,10.78z"/>
   <path class="fil0" d="M11741.86 2312.83c-21.57,60.31 -17.28,64.69 49.59,92.65 51.73,21.56 71.18,43.13 64.69,69.07 -4.3,21.56 -43.13,213.42 -86.25,426.86 -43.13,213.51 -86.25,405.39 -97.03,424.84 -10.78,19.36 -51.71,38.75 -90.54,43.13 -56.09,4.29 -71.18,17.18 -75.47,64.68 -8.67,68.98 -38.83,58.2 502.42,166.01 605.85,120.7 554.13,120.7 584.29,-8.67 15.07,-60.31 28.03,-148.76 28.03,-196.17 2.2,-75.47 -6.47,-92.74 -45.3,-103.52 -97.03,-25.85 -116.41,-15.07 -137.98,66.89 -28.03,114.21 -103.49,148.73 -247.96,114.21 -137.95,-34.46 -159.52,-73.29 -125.06,-232.81 12.96,-66.88 28.03,-129.37 32.34,-135.86 6.47,-12.96 258.74,10.78 327.73,32.34 43.12,15.07 47.49,8.61 47.49,-77.64 0,-92.74 0,-94.85 -97.03,-120.71 -53.9,-15.16 -131.57,-25.94 -174.69,-25.94 -51.71,0 -73.27,-8.6 -66.86,-27.96 6.49,-12.98 28.05,-97.03 49.61,-183.28 43.13,-172.5 43.13,-174.69 219.91,-131.57 131.55,32.34 150.93,49.61 159.61,144.46 6.48,73.36 15.06,81.94 88.35,99.21 53.91,15.07 88.43,12.89 103.52,-2.18 12.96,-12.89 36.64,-99.14 53.91,-191.88 32.34,-189.76 25.85,-202.73 -99.14,-202.73 -84.13,0 -599.45,-86.25 -812.96,-135.77l-133.67 -32.35 -21.55 64.69z"/>
   <path class="fil0" d="M8289.8 2409.86c-101.41,27.97 -196.26,56.02 -209.22,60.31 -15.07,6.49 -27.96,41.01 -27.96,77.64 0,60.4 6.4,66.89 53.9,58.22 36.63,-8.6 53.91,-2.11 53.91,17.26 0,51.72 -200.55,487.34 -215.63,467.89 -17.27,-19.38 -86.24,-308.36 -86.24,-360.09 0,-19.36 15.07,-40.92 32.34,-47.41 38.75,-15.07 40.92,-51.8 4.29,-103.52 -25.85,-36.64 -38.83,-34.52 -243.68,30.16 -116.39,38.84 -237.18,75.47 -267.32,84.14 -41.01,12.89 -53.91,30.16 -53.91,79.76 0,56.1 8.58,62.51 66.8,64.68 36.64,2.2 77.65,8.61 88.43,15.1 25.85,17.25 101.32,250.14 200.55,627.48 64.68,243.67 66.8,260.86 32.34,286.8 -21.56,15.06 -49.61,30.14 -62.57,34.45 -36.65,12.96 21.56,122.89 64.68,122.89 34.53,0 424.76,-114.22 521.79,-153.05 36.72,-12.97 47.5,-34.52 43.12,-68.98 -4.29,-36.72 -21.56,-47.5 -77.58,-49.61 -38.83,0 -79.76,-10.79 -90.54,-21.57 -21.56,-21.56 -133.75,-357.95 -122.97,-368.73 4.38,-2.11 127.26,90.54 278.2,209.13l271.64 211.33 191.94 -64.69c103.52,-36.65 194.06,-69 198.35,-73.29 19.39,-17.27 -40.92,-116.47 -71.15,-116.47 -40.95,0 -461.41,-299.7 -601.56,-429.07 -28.06,-25.85 166,-420.46 230.69,-472.17 49.61,-38.83 58.22,-56.1 45.32,-112.19 -17.27,-75.46 -10.78,-75.46 -247.96,-6.4z"/>
   <path class="fil0" d="M13249.09 2651.33c-32.34,64.69 -25.94,105.64 21.56,120.71 25.86,8.67 43.13,32.34 43.13,60.4 0,25.85 -77.67,222.08 -168.2,435.53 -166.02,379.51 -170.39,388.12 -241.48,398.9 -47.5,6.49 -75.47,25.94 -88.45,58.28 -15.07,40.93 -6.47,53.9 45.32,81.87 58.2,30.23 493.73,204.84 511,204.84 4.29,0 6.5,-34.46 6.5,-75.46 0,-51.73 -10.79,-75.47 -30.24,-75.47 -17.27,0 -36.65,-8.6 -43.12,-17.19 -10.78,-17.27 79.76,-299.75 103.5,-321.32 6.49,-6.49 40.94,0 77.67,15.08l64.68 25.94 0 263.03 2.12 260.86 191.94 90.62 194.06 90.54 32.34 -47.41c45.24,-64.68 40.93,-116.48 -10.78,-133.75 -25.94,-8.6 -43.12,-34.45 -45.32,-60.31 0,-25.94 -8.58,-127.26 -15.07,-226.4l-15.07 -178.99 86.24 -38.83c172.5,-77.65 295.38,-280.31 250.08,-418.26 -49.61,-146.65 -174.61,-239.39 -519.6,-379.54 -465.79,-191.86 -426.96,-178.97 -452.81,-133.67zm534.68 347.11c129.37,79.85 135.86,209.22 15.16,336.39 -75.47,77.67 -129.38,90.56 -245.85,49.62 -36.66,-12.96 -66.8,-25.85 -66.8,-30.23 0,-17.19 157.33,-349.29 176.78,-372.96 30.17,-34.55 36.64,-32.35 120.71,17.18z"/>
   <path class="fil0" d="M6403.11 3175.32c-81.96,47.41 -191.94,105.61 -241.56,129.37 -92.65,43.12 -116.41,92.65 -68.98,140.15 17.25,17.19 38.82,17.19 75.47,2.12 28.03,-12.9 56.08,-19.39 60.38,-15.1 6.49,4.32 23.76,90.56 43.12,191.88 19.38,101.41 58.21,299.76 88.44,442.03 68.99,329.92 68.99,364.44 0,394.61 -58.27,28.03 -64.68,49.59 -32.33,112.1 19.36,38.83 36.62,34.52 254.36,-68.98 127.26,-60.4 232.89,-112.12 235.07,-112.12 2.11,-2.18 -2.18,-28.03 -8.66,-62.49 -10.78,-53.91 -17.19,-58.28 -79.77,-45.32 -64.68,10.78 -71.17,6.49 -94.84,-71.16 -23.74,-75.46 -21.57,-84.07 23.67,-118.59 25.94,-19.39 92.74,-58.22 150.94,-84.07l101.4 -49.61 66.8 64.68c64.69,62.51 64.69,62.51 21.57,99.23 -51.74,40.93 -56.03,79.76 -17.28,133.67 25.94,34.45 34.52,32.34 146.64,-34.52 64.7,-38.84 181.17,-99.15 258.75,-135.87 75.47,-34.45 142.33,-66.8 146.62,-68.98 23.77,-15.09 -68.97,-114.3 -107.8,-114.3 -66.87,0 -204.84,-122.88 -541.24,-482.97 -168.12,-178.96 -310.47,-327.72 -316.94,-329.9 -6.49,-2.11 -79.78,34.52 -163.83,84.14zm394.53 670.54c-2.12,4.29 -53.91,28.03 -112.11,53.9 -122.91,58.19 -131.49,51.8 -155.24,-114.3 -17.25,-137.98 -25.86,-176.79 -43.13,-232.8 -8.58,-28.06 56.11,23.67 150.94,122.88 92.74,90.54 163.91,168.2 159.54,170.32z"/>
   <path class="fil0" d="M14754.07 3332.66c-19.39,43.12 -17.19,60.39 10.78,92.73 21.56,21.57 36.71,56.09 36.71,75.47 0,36.64 -340.7,549.83 -465.78,700.77 -62.48,75.47 -84.05,88.43 -129.37,77.64 -38.81,-10.78 -62.49,-2.17 -84.05,25.86 -17.27,23.76 -32.34,47.43 -32.34,56.1 0,6.41 56.02,45.24 124.99,81.87 66.87,38.84 178.99,110 247.97,155.32 69.06,47.42 127.26,81.87 131.55,77.58 2.2,-2.12 17.27,-23.68 32.34,-45.24 25.88,-32.34 23.76,-43.12 -6.47,-77.66 -32.34,-36.64 -28.05,-49.6 88.43,-224.21 68.98,-103.52 131.49,-185.48 140.15,-187.65 28.06,0 -15.07,470.07 -60.39,627.47 -6.47,25.88 36.65,69 135.86,142.36 260.86,191.86 254.46,189.68 295.38,124.99 36.65,-53.9 34.54,-58.19 -12.96,-94.84 -49.53,-38.82 -49.53,-40.93 -34.45,-390.31 8.6,-230.68 21.55,-355.77 38.83,-366.55 40.92,-25.85 461.39,-68.98 521.78,-53.9 43.12,10.78 62.51,4.37 90.54,-34.46 19.38,-28.05 34.55,-58.2 34.55,-66.86 0,-6.49 -60.4,-49.62 -133.76,-94.86 -75.47,-45.3 -172.5,-109.98 -217.73,-144.44 -45.31,-34.54 -84.14,-60.4 -88.43,-56.11 -4.31,4.32 -19.38,32.35 -34.46,60.4 -21.55,43.12 -21.55,53.9 8.58,71.18 77.68,43.12 30.17,73.26 -196.23,120.7 -129.38,28.03 -252.25,56.08 -273.82,62.58 -30.16,8.58 -10.78,-34.55 77.64,-157.43 97.03,-140.15 129.38,-170.39 176.8,-170.39 51.72,-2.11 97.03,-38.75 99.23,-77.58 0,-15.07 -461.48,-364.44 -483.04,-364.44 -6.49,0 -25.87,23.74 -38.83,53.91z"/>
   <path class="fil0" d="M5406.87 3772.57c-263.03,215.62 -269.52,224.22 -232.8,276.02 32.34,47.41 38.75,47.41 97.03,17.18 34.45,-17.18 66.8,-32.34 71.09,-32.34 15.16,0 364.44,411.86 355.77,420.45 -4.29,4.38 -189.68,-49.52 -409.68,-122.87l-403.19 -129.38 -146.64 129.38c-79.76,71.15 -170.32,150.93 -200.47,174.67l-53.9 43.13 49.53 49.61c41.01,40.92 53.9,45.23 90.62,21.56 79.77,-49.62 125,-30.23 213.42,86.25 45.33,62.48 172.5,215.62 280.31,340.61 174.7,200.56 191.89,228.59 163.92,258.75 -41.01,45.3 -41.01,84.14 2.11,131.56 32.35,36.65 45.3,30.16 219.91,-103.51 103.53,-77.58 189.77,-148.75 194.06,-157.42 2.18,-6.41 -19.38,-36.64 -47.41,-62.51 -51.73,-47.42 -58.22,-49.59 -105.63,-17.25 -49.62,32.34 -56.09,30.23 -127.26,-45.24 -88.37,-92.74 -319.06,-381.71 -319.06,-398.9 0,-4.38 196.17,56.02 435.53,137.96 368.67,125.08 442.03,142.35 470.08,118.59 17.19,-15.07 73.27,-51.71 125,-81.94l90.62 -53.9 -58.28 -88.36c-34.46,-47.51 -172.5,-230.79 -308.27,-403.28 -345,-442.02 -317.03,-392.41 -260.95,-450.63l45.33 -47.42 -49.62 -47.41c-28.05,-25.94 -56.08,-47.5 -62.57,-47.5 -8.61,0 -60.31,38.84 -118.6,84.14z"/>
   <path class="fil0" d="M9799.15 4011.86c-239.38,23.74 -625.31,109.99 -810.78,185.46 -293.27,114.3 -666.23,403.21 -894.83,692.19 -131.55,166 -325.61,526.07 -422.64,780.52 -86.25,228.52 -153.04,532.57 -198.35,886.17l-40.95 334.21 -116.48 103.52c-235,211.31 -715.83,461.48 -1451.06,758.96 -605.94,243.68 -851.71,383.83 -1129.9,646.87 -178.99,170.38 -310.48,332.1 -409.68,508.89 -310.47,554.15 -355.78,1302.33 -109.92,1888.88 62.48,153.05 77.57,204.85 56.01,215.63 -47.43,30.14 -97.03,120.7 -120.7,230.69 -30.23,133.66 2.11,364.38 66.79,491.64 60.38,116.39 200.54,267.33 314.83,334.21l92.74 53.9 -88.45 99.15c-196.23,224.29 -321.22,580.06 -321.22,918.57 2.1,493.75 189.67,877.56 510.99,1037.09 112.1,56.09 153.05,64.69 373.05,71.18 325.55,10.78 403.19,-10.78 551.95,-155.25 64.69,-62.48 116.48,-112.1 116.48,-112.1 0,2.12 -15.16,49.62 -32.34,107.81 -45.33,150.94 -41.02,299.7 21.56,541.17 68.97,273.91 191.86,491.64 388.12,689.99 409.67,411.86 1013.42,720.22 2026.84,1034.98 401.01,125.08 694.28,250.14 884.05,375.23 172.49,114.3 247.96,213.44 247.96,316.94 0,40.94 6.4,73.29 17.19,73.29 58.28,-2.12 774.12,-411.8 983.25,-564.91 81.96,-58.21 161.71,-112.12 178.99,-118.59 17.27,-6.49 64.68,19.45 109.92,64.69 43.12,41.01 168.21,129.37 273.91,194.06 263.03,159.6 771.86,424.75 812.87,424.75 28.05,0 32.34,-17.19 23.67,-86.25 -10.78,-77.58 -4.29,-92.65 66.87,-159.54 172.49,-163.89 375.16,-265.21 864.68,-429.04 886.16,-299.76 1371.31,-504.6 1733.55,-731 385.95,-241.5 603.75,-467.9 776.24,-810.69 112.12,-220 140.16,-366.56 125.09,-649.07l-12.97 -243.65 103.5 97.03c125.08,116.48 267.35,166 478.68,166 532.57,0 886.23,-375.16 959.52,-1013.41 32.34,-288.92 -140.16,-817.19 -340.71,-1043.59l-79.75 -92.72 133.66 -86.25c86.25,-53.9 161.72,-122.9 202.73,-187.59 79.76,-118.59 135.86,-340.68 135.86,-530.45 0,-135.78 -19.45,-194.06 -88.45,-271.64 -40.92,-43.12 -40.92,-47.41 43.13,-301.87 202.66,-614.52 159.54,-1244.12 -131.55,-1839.27 -92.66,-196.24 -133.67,-252.26 -295.38,-411.86 -297.58,-297.49 -700.77,-536.87 -1356.24,-806.41 -573.57,-237.18 -1157.87,-552 -1345.52,-724.51l-103.44 -97.03 -32.34 -247.96c-77.67,-586.47 -176.87,-961.63 -329.92,-1259.21 -183.28,-357.95 -519.67,-752.47 -791.31,-929.34 -172.5,-112.1 -506.71,-275.93 -679.21,-329.84 -327.81,-105.7 -771.94,-127.26 -1050.14,-51.8 -148.76,41.02 -157.34,41.02 -312.65,2.19 -206.95,-51.8 -353.6,-62.58 -577.8,-41.02zm327.72 215.63c81.96,23.74 222.11,125.07 200.55,146.64 -6.49,6.46 -32.34,-8.61 -60.4,-34.46 -92.73,-86.24 -159.59,-99.23 -508.88,-94.92 -183.28,2.19 -327.75,-2.11 -319.15,-8.6 49.62,-49.61 526.16,-56.08 687.88,-8.66zm1390.76 -8.61c75.47,6.49 142.27,21.56 148.76,34.55 10.78,15.06 -8.6,19.36 -58.22,8.58 -105.61,-19.37 -599.43,-21.57 -677.01,-2.18 -34.54,8.66 -92.74,30.23 -125.08,47.5 -34.52,17.19 -66.86,25.85 -73.36,19.36 -17.18,-15.07 109.99,-75.46 235.08,-109.99 109.92,-30.16 191.88,-27.96 549.83,2.18zm-105.7 75.47c114.3,10.78 282.49,40.95 370.94,66.88 166,43.13 482.95,166.01 469.98,181.08 -4.29,4.31 -79.75,-17.24 -168.12,-47.41 -140.15,-47.41 -357.97,-92.74 -614.51,-127.26 -47.51,-6.41 30.14,21.56 172.49,60.4 265.15,73.35 433.36,138.03 679.21,263.03 215.62,109.99 247.96,150.93 43.13,53.9 -487.35,-228.51 -1270.06,-278.12 -1660.29,-105.63l-97.03 43.13 64.69 -66.86c107.81,-112.11 297.49,-194.06 457.09,-194.06 88.36,0 135.87,-8.61 135.87,-23.68 0,-53.91 -470.08,19.39 -519.7,79.75 -28.03,34.55 -62.48,40.96 -62.48,10.79 0,-34.53 168.12,-135.85 295.38,-174.68 148.75,-49.53 166,-49.53 433.35,-19.38zm-1360.53 30.17c105.64,32.34 286.8,144.52 286.8,181.16 0,10.78 -36.72,0 -79.84,-21.56 -97.03,-47.42 -280.31,-84.14 -403.19,-81.96 -73.29,2.2 -64.69,6.49 62.57,28.05 84.05,15.08 174.61,38.83 204.84,53.91 77.58,40.95 263.04,178.98 252.26,187.56 -2.18,4.32 -64.69,-17.24 -135.86,-45.29 -316.95,-127.2 -886.23,-118.6 -1313.1,19.45 -131.57,43.12 -297.58,112.1 -373.04,150.93 -146.65,79.75 -142.34,45.23 4.29,-41.01 172.49,-101.32 726.64,-310.47 963.83,-366.56l138.03 -32.34 -172.49 12.96c-94.92,6.48 -243.67,25.87 -332.1,43.12 -88.36,15.1 -163.83,25.87 -168.21,21.56 -4.29,-4.29 97.03,-36.63 224.29,-73.27 196.17,-53.9 273.82,-64.68 482.97,-66.88 161.72,-2.18 286.78,8.6 357.95,30.17zm51.73 310.53c114.28,43.12 312.65,168.21 295.38,185.4 -4.29,4.37 -68.98,-8.61 -146.56,-30.17 -157.42,-43.12 -426.95,-77.65 -355.77,-47.41 23.67,10.77 64.68,21.55 92.65,21.55 118.6,4.29 461.47,155.23 429.13,187.58 -6.49,6.48 -75.47,0 -153.11,-12.97 -81.96,-12.89 -194.06,-15.07 -256.57,-6.4l-112.1 15.07 142.26 15.07c144.45,15.1 364.45,94.86 364.45,131.58 0,10.78 -28.05,15.07 -64.69,6.4 -75.47,-17.18 -243.67,6.49 -291.09,41.01 -25.94,19.39 -6.48,21.56 90.55,17.27 68.97,-4.37 155.22,4.29 189.76,17.19l64.69 25.94 -97.03 27.96c-114.3,30.23 -314.85,122.97 -377.34,170.39 -25.94,19.38 15.07,8.6 94.83,-21.56 75.47,-30.23 191.89,-60.4 258.75,-64.69l120.79 -10.78 -127.26 71.18c-71.18,38.74 -235.01,142.26 -366.56,230.69 -551.94,366.56 -715.86,446.31 -1349.74,670.54 -243.68,86.25 -470.08,170.38 -502.43,187.65 -34.52,17.19 -66.86,25.86 -73.35,19.37 -15.07,-15.07 252.34,-140.16 668.43,-314.83 288.97,-122.88 487.32,-235.01 957.4,-541.17 146.65,-94.92 148.76,-125.08 2.11,-38.83 -209.13,122.9 -416.08,219.93 -717.95,334.21 -166.09,60.4 -353.66,133.69 -414.06,157.43 -137.98,53.9 -148.76,43.12 -21.56,-21.57 243.67,-122.88 963.89,-549.83 963.89,-571.39 0,-4.29 -66.88,23.67 -148.82,66.8 -81.96,41.01 -293.2,133.75 -470.08,204.84 -319.05,131.55 -616.63,286.8 -717.95,375.22 -118.59,105.64 -133.75,97.03 -21.56,-10.78 66.79,-64.69 206.95,-174.67 312.65,-245.85 204.84,-137.98 728.73,-409.68 1013.42,-526.1 271.64,-112.1 237.18,-114.28 -120.79,-10.77 -653.34,194.05 -920.69,314.84 -1142.8,521.8 -71.15,64.68 -133.66,112.1 -140.15,107.81 -21.56,-23.68 327.74,-323.43 498.13,-426.96 185.39,-112.1 774.04,-360.06 1024.2,-431.23 200.46,-58.2 92.65,-51.74 -215.62,10.77 -530.47,107.81 -728.82,189.77 -1026.4,422.64 -103.5,81.96 -191.86,148.76 -196.24,148.76 -25.85,0 21.56,-43.12 226.4,-206.95 368.74,-293.27 918.57,-530.45 1364.91,-586.47l159.6 -19.45 -120.79 -4.32c-116.4,-2.17 -472.17,43.13 -666.23,86.25 -265.23,58.22 -495.93,148.77 -681.41,267.35 -181.07,116.48 -166,75.47 17.28,-47.41 276.01,-183.28 730.93,-357.89 1091,-418.29 79.84,-12.96 178.98,-30.23 219.99,-41 73.28,-17.19 71.09,-17.19 -32.33,-19.39 -329.93,-4.29 -746.1,86.25 -1045.77,230.71 -202.73,97.03 -215.62,101.32 -161.72,58.2 127.18,-105.63 536.86,-275.93 884.05,-368.67 250.08,-66.86 597.25,-62.57 789.13,10.78zm1574.04 -19.44c325.61,84.13 808.58,304.04 1009.11,457.17 66.89,51.71 36.66,49.53 -36.63,-2.2 -101.32,-71.15 -401.09,-213.42 -523.99,-247.96 -232.87,-64.68 -920.68,-142.33 -892.63,-101.32 6.41,12.89 56.02,23.67 107.81,23.67 140.16,0 360.07,51.8 625.31,146.65 282.41,99.21 668.42,280.31 743.89,347.17 38.74,32.34 12.9,23.68 -86.25,-28.05 -327.81,-174.68 -830.14,-306.16 -1239.82,-323.43 -209.22,-8.58 -220,-8.58 -86.25,8.6 211.24,28.05 648.98,157.43 914.19,269.53 235,101.4 450.63,235.07 595.16,366.55 97.03,88.43 68.97,79.85 -77.67,-25.85 -230.69,-163.83 -666.22,-319.14 -1110.45,-394.6 -353.57,-58.2 -390.3,-51.74 -105.61,19.44 582.18,148.76 1026.31,364.38 1377.78,670.54 125.08,107.81 101.34,114.3 -30.15,8.67 -112.19,-88.43 -463.58,-263.04 -668.42,-327.72 -204.85,-66.89 -737.49,-202.73 -748.27,-191.95 -4.29,6.47 43.12,28.03 105.69,47.41 429.07,135.87 1034.98,476.55 1345.46,754.68 77.64,71.18 71.15,69.06 -64.69,-21.56 -196.17,-131.49 -407.5,-237.19 -653.35,-325.55 -109.92,-38.83 -267.35,-107.81 -353.6,-148.82 -84.05,-43.12 -157.4,-73.29 -161.71,-68.98 -15.08,12.96 541.25,345 806.4,478.66 260.92,131.55 317.03,181.17 88.43,77.65 -75.48,-34.52 -239.37,-92.72 -364.36,-131.55 -222.11,-66.8 -560.62,-219.92 -754.68,-336.33 -107.81,-64.69 -97.03,-49.62 32.35,49.61 166,125 515.29,314.77 978.88,532.57 256.56,120.7 485.14,230.69 508.9,245.79 71.09,41.01 -6.48,30.23 -92.74,-15.1 -43.12,-21.56 -211.32,-84.05 -370.84,-140.15 -485.15,-168.19 -1026.4,-424.76 -1326.07,-625.31 -71.18,-47.41 -230.78,-148.73 -355.78,-224.2l-226.4 -138.04 109.92 10.78c60.37,6.47 166.01,32.34 235.07,56.08 68.98,25.86 129.37,40.95 133.67,36.64 10.78,-10.78 -245.86,-129.37 -349.29,-163.9 -47.5,-15.07 -94.92,-34.45 -105.7,-43.12 -28.05,-27.97 172.5,-49.53 319.12,-36.63 200.55,19.45 71.18,-25.88 -170.3,-58.22l-194.06 -28.03 105.62 -47.44c60.39,-25.85 176.81,-53.91 258.74,-64.69l153.14 -15.07 -122.97 -17.27c-109.93,-15.07 -252.26,0 -372.96,43.12 -28.06,8.61 -15.16,-10.78 32.34,-51.7 81.87,-71.18 211.24,-122.97 366.56,-146.65 153.05,-21.56 178.9,-53.9 32.34,-38.83 -120.79,12.98 -325.63,56.11 -414.06,88.45 -36.63,12.89 -36.63,12.89 0,-30.23 53.91,-62.51 226.4,-150.94 362.27,-187.59 174.67,-47.42 517.49,-43.12 711.55,8.61zm-1403.65 884.04c-23.77,34.52 -129.38,135.86 -232.89,222.11 -103.52,88.43 -207.03,183.28 -230.7,209.13 -45.33,53.91 181.08,-114.21 377.34,-278.13l116.39 -99.2 -51.71 86.24c-118.58,200.55 -191.94,291.09 -381.71,478.75 -109.93,109.92 -189.68,200.46 -178.9,200.46 25.85,0 370.84,-338.5 482.95,-474.36l79.78 -97.03 -79.78 150.93c-131.55,245.85 -250.15,401.08 -491.62,629.68 -433.35,413.97 -1000.46,737.41 -1923.34,1095.29 -191.86,73.36 -526.08,185.46 -743.9,245.85 -457.1,129.38 -1034.98,312.65 -1129.81,357.89 -64.69,32.35 -47.5,30.23 107.81,-8.6 47.42,-10.78 202.64,-36.64 345,-56.08 360.06,-49.53 858.11,-150.94 1168.64,-239.3 146.65,-41.01 271.64,-73.36 280.31,-71.17 10.78,0 -64.69,38.83 -163.9,86.24 -176.81,81.96 -437.73,161.72 -698.58,213.44 -219.92,43.13 -120.77,43.13 191.87,0 347.18,-49.52 696.46,-155.22 972.48,-293.2 103.52,-51.79 191.88,-90.54 196.17,-86.25 12.96,15.07 -237.18,176.79 -398.9,258.75 -312.65,157.43 -599.36,226.4 -1179.42,282.42 -586.5,58.28 -821.48,107.81 -1099.67,235.07 -452.81,206.96 -789.14,584.29 -907.73,1017.71 -47.5,172.5 -66.89,590.79 -34.54,741.72 92.74,442.02 329.92,713.73 724.53,834.52 101.32,30.14 200.46,38.75 463.59,38.75 385.92,-2.12 584.29,-43.13 862.48,-178.9 282.43,-138.05 556.24,-452.81 605.85,-694.37 12.96,-68.98 15.08,-64.68 17.25,41.01 4.32,168.21 -77.64,314.76 -275.99,504.53 -112.13,105.7 -137.97,138.04 -88.36,109.99 40.92,-21.56 157.34,-122.88 260.86,-224.28 155.23,-150.94 196.23,-204.85 235.07,-312.66 38.74,-105.63 43.12,-142.27 23.67,-194.06 -21.56,-58.2 -19.38,-60.3 8.67,-23.67 19.37,25.85 32.34,90.53 32.34,163.82 0,478.75 -698.65,931.56 -1487.78,963.9 -474.37,21.56 -845.31,-90.63 -1101.87,-334.21 -301.87,-282.51 -403.2,-511.09 -422.64,-942.33 -19.39,-392.41 71.17,-754.68 254.45,-1030.61 118.59,-178.99 345,-401.1 541.23,-532.65 194.06,-131.49 224.23,-159.54 97.03,-94.85 -163.89,84.07 -457.09,304.07 -571.39,429.06 -297.58,325.61 -433.43,689.99 -439.92,1170.85 -2.11,306.16 -34.45,200.52 -36.63,-129.38 -2.11,-137.97 10.78,-323.42 28.03,-411.79 56.11,-293.29 247.97,-636.08 480.86,-860.37 122.88,-118.59 491.64,-370.87 631.79,-431.24 209.13,-92.74 614.52,-219.94 1056.55,-329.93 823.65,-206.95 1410.12,-405.3 1990.12,-668.42 271.7,-125 597.34,-301.88 597.34,-323.43 0,-6.41 -90.63,36.71 -198.44,94.91 -237.18,127.2 -843.04,355.78 -1235.45,467.88 -347.19,99.23 -897.03,224.23 -881.93,198.37 6.47,-8.6 21.56,-17.27 34.52,-17.27 56.01,0 886.16,-271.64 1138.5,-370.85 420.46,-166.03 1168.65,-571.39 1332.47,-720.16 51.8,-47.41 43.13,-45.29 -60.3,12.9 -250.17,142.33 -483.04,237.19 -1067.33,429.13 -332.1,109.93 -640.46,219.92 -683.58,241.48 -45.24,23.76 -81.88,36.65 -81.88,30.16 0,-19.39 495.93,-252.26 752.48,-355.77 286.8,-114.22 614.52,-267.35 821.56,-385.94 226.41,-129.38 539.05,-334.22 539.05,-351.47 0,-6.49 -90.62,32.35 -198.43,90.54 -109.92,58.29 -301.87,146.65 -426.87,196.24 -202.72,81.96 -1024.2,370.87 -1132.01,398.9 -97.03,23.76 323.43,-178.97 614.52,-297.56 452.81,-185.39 787.02,-373.05 1252.72,-709.37 185.45,-131.55 584.35,-362.26 629.59,-364.45 10.78,0 -2.11,28.06 -27.96,64.69zm610.14 36.72c105.7,56.02 273.9,159.52 368.73,230.69 422.67,314.77 815.08,528.28 1446.87,789.14 271.64,112.19 571.39,265.23 571.39,293.26 0,4.32 -64.68,-23.74 -144.53,-64.68 -81.86,-38.81 -219.91,-94.84 -308.27,-120.77 -388.12,-114.22 -862.48,-291.09 -1104.05,-411.8 -142.26,-71.17 -263.03,-125.08 -267.35,-120.77 -10.78,10.79 362.27,252.26 571.4,370.85 207.04,116.48 347.2,181.17 750.38,345 297.58,122.97 797.8,362.26 836.64,401.07 10.78,10.79 -60.4,-17.24 -161.72,-64.68 -101.41,-45.3 -386,-150.94 -636.08,-230.7 -638.28,-204.84 -914.28,-323.43 -1196.7,-513.2 -53.9,-34.52 -84.14,-47.41 -66.89,-28.03 92.74,116.48 787.02,521.79 1220.46,711.55 183.29,81.94 914.2,342.88 1272.17,454.98 103.43,32.35 103.43,32.35 21.56,21.57 -47.5,-6.49 -256.63,-53.91 -463.58,-105.7 -530.48,-133.67 -1078.11,-323.43 -1455.45,-508.83 -94.91,-45.29 -148.82,-64.68 -118.59,-41 30.14,23.74 200.46,114.29 377.34,202.72 454.91,226.4 1164.35,472.19 1783.17,616.64 388.12,90.62 914.21,239.36 1140.61,323.43 211.31,75.47 511.01,241.56 694.28,381.71 411.86,316.95 674.92,914.2 629.68,1433.88 -23.76,280.31 -49.61,314.77 -51.79,71.09 -6.49,-569.21 -235.01,-1045.76 -655.47,-1362.7 -138.04,-105.63 -316.94,-211.33 -316.94,-185.39 0,8.58 49.53,45.24 109.93,81.87 181.16,107.81 448.48,405.39 567.08,633.97 140.15,271.64 187.59,465.7 189.76,799.91 4.3,310.54 -21.56,439.91 -127.26,668.43 -60.3,125.08 -116.41,200.55 -252.25,334.21 -286.8,282.49 -573.51,390.3 -1037.09,386.01 -554.22,-4.29 -1149.29,-207.02 -1392.96,-474.37 -157.41,-172.5 -239.37,-375.22 -209.14,-515.37 28.06,-125 51.73,-133.67 43.13,-12.9 -6.49,90.54 2.11,116.42 86.25,241.48 53.9,75.46 163.83,194.05 245.78,263.05 217.8,183.28 258.75,196.24 81.94,23.74 -178.96,-176.79 -265.21,-334.21 -280.31,-517.49l-10.78 -127.26 40.95 122.97c172.5,511 668.43,810.69 1405.92,849.5 549.83,28.06 946.53,-161.71 1153.57,-552.01 135.78,-263.04 168.12,-526.1 107.81,-901.23 -41.01,-247.96 -84.14,-364.44 -211.33,-560.62 -187.57,-288.97 -392.41,-467.96 -707.26,-618.9 -271.7,-127.19 -577.86,-191.88 -1269.97,-260.85 -403.27,-41.02 -776.23,-135.86 -1041.47,-269.53 -187.57,-94.91 -435.54,-254.45 -418.35,-269.53 4.38,-6.49 81.96,30.17 170.38,77.59 254.46,135.86 603.74,252.33 884.05,291.08 133.67,17.27 306.16,43.13 381.63,56.08 75.47,10.78 140.16,17.28 146.65,12.99 4.29,-6.5 -86.25,-28.06 -202.73,-47.51 -116.42,-19.38 -267.35,-49.52 -336.33,-66.8 -142.33,-34.52 -584.35,-202.72 -569.28,-215.62 4.37,-6.48 90.62,12.9 189.77,43.13 224.29,64.68 761.14,168.2 1239.82,239.29 329.9,49.62 554.13,92.74 666.32,129.38 34.45,10.78 36.63,8.66 10.78,-6.41 -47.51,-32.34 -450.7,-159.6 -851.71,-271.72 -1246.32,-345 -1709.9,-528.27 -2451.68,-963.81 -575.69,-338.51 -1026.32,-787.02 -1192.32,-1190.21 -43.13,-107.81 -28.06,-101.41 40.92,15.07 60.4,103.52 334.21,368.67 446.34,431.25 64.69,36.63 62.57,30.16 -23.68,-43.13 -215.62,-185.45 -437.73,-450.69 -489.52,-580.06 -6.41,-21.57 73.35,30.23 178.98,114.3 174.68,135.84 306.17,219.91 345,219.91 8.67,0 -51.73,-47.41 -133.69,-107.81 -181.07,-129.37 -526.07,-450.62 -487.32,-452.81 17.27,0 118.59,45.31 226.4,101.41zm-250.08 577.8c170.32,332.1 592.96,743.9 1093.18,1069.51l256.57 168.2 -84.07 12.89c-431.24,75.48 -573.58,122.97 -795.6,271.71 -286.8,191.89 -403.28,396.72 -416.17,739.6 -8.67,198.35 19.38,431.25 56.02,452.81 8.66,4.29 15.15,-99.21 15.15,-230.69 0,-226.41 4.29,-247.97 58.2,-332.1 49.62,-75.47 137.98,-166.03 97.03,-99.15 -19.45,30.15 6.49,157.34 30.17,157.34 10.78,0 19.45,-19.38 19.45,-45.24 0,-56.08 45.23,-43.12 77.58,21.57 17.24,34.45 28.03,40.94 38.81,19.38 6.49,-15.09 6.49,19.45 2.2,79.76 -10.78,107.81 -10.78,107.81 21.56,43.12 17.18,-36.63 30.14,-81.87 32.34,-103.43 2.12,-84.14 43.13,-6.49 43.13,79.76 0,127.19 27.96,142.27 56.02,30.16 25.85,-97.03 28.03,-92.74 73.35,68.98 25.85,90.63 27.97,92.74 47.41,45.3 10.79,-30.14 15.08,-79.75 8.61,-114.28 -12.9,-84.07 23.74,-75.46 41.01,8.67 23.67,120.71 34.46,146.56 58.2,146.56 12.89,0 17.27,-27.97 10.78,-71.09l-12.96 -69.06 86.25 97.03c66.86,71.17 86.25,84.13 75.46,47.5 -40.94,-148.82 -40.94,-146.65 36.64,-64.69 90.62,99.14 114.3,103.43 69.06,15.07 -51.79,-97.03 -25.94,-99.2 62.49,-6.49 88.45,90.56 112.12,90.56 66.89,0 -38.84,-73.27 -38.84,-77.64 -8.67,-77.64 12.96,0 71.15,38.83 129.37,88.42 58.2,47.44 105.69,79.78 105.69,69 0,-10.78 -28.04,-64.68 -64.68,-120.7 -34.54,-56.11 -56.1,-101.41 -47.5,-101.41 25.94,0 161.72,105.7 183.27,140.15 8.68,17.28 25.94,32.35 38.84,32.35 28.03,0 -10.78,-73.29 -94.85,-181.1 -79.76,-99.21 -28.05,-79.76 99.14,38.83 101.41,94.85 103.52,60.4 2.18,-75.47 -88.43,-120.77 -66.86,-138.04 45.32,-38.83 60.31,53.9 75.47,60.4 75.47,28.05 0,-19.45 -23.76,-68.98 -56.1,-109.99 -36.64,-47.43 -45.31,-71.17 -23.74,-71.17 32.34,0 112.19,79.84 129.37,129.37 8.66,25.94 12.95,25.94 25.94,-6.4 8.58,-21.57 2.11,-58.29 -21.57,-92.74 -34.54,-53.91 -34.54,-53.91 8.58,-32.35 60.4,34.46 73.29,90.54 56.11,278.13 -34.54,383.81 -226.4,771.93 -556.32,1116.92 -81.96,88.45 -142.33,159.54 -131.55,159.54 47.41,0 250.14,-206.95 362.24,-370.84 66.88,-97.03 120.79,-166.03 120.79,-153.05 0,45.23 -347.19,549.83 -457.18,666.22 -60.31,64.69 -99.14,116.42 -86.25,116.42 10.78,0 105.7,-90.54 209.22,-200.46l189.68 -198.44 -77.58 150.93c-43.12,81.96 -129.37,232.89 -196.24,334.21 -64.68,99.22 -114.3,185.46 -107.81,191.95 10.78,10.79 6.47,17.27 109.99,-138.04 135.87,-202.66 295.38,-480.77 373.05,-653.27 38.75,-86.24 75.47,-153.13 79.76,-146.64 12.89,10.78 -157.43,431.24 -245.85,605.85 -237.19,470.08 -802.1,1106.16 -1127.64,1270.06 -200.55,99.14 -398.9,118.59 -621.01,60.39 -280.31,-75.47 -504.6,-245.85 -856,-653.35 -336.41,-390.3 -483.03,-621.01 -625.3,-981.08 -105.7,-269.53 -92.74,-273.82 32.34,-12.96 107.81,222.09 297.5,515.38 388.12,597.25l49.53 43.13 -27.97 -53.91c-15.15,-30.16 -84.13,-135.78 -150.93,-239.3 -112.19,-166.01 -366.56,-640.37 -366.56,-681.38 0,-10.78 40.93,56.08 88.36,144.44 112.11,204.84 353.67,493.82 416.15,495.93 8.61,0 -15.07,-36.63 -56.08,-81.87 -81.87,-90.62 -405.3,-567.11 -405.3,-599.45 0,-10.78 25.85,19.39 56.02,66.8 79.75,120.77 217.79,260.92 332.1,340.71 88.35,60.37 81.87,49.59 -66.89,-107.82 -312.65,-329.92 -562.79,-873.26 -556.3,-1205.3 2.17,-103.52 4.29,-101.32 38.81,66.8 73.29,340.7 189.77,612.41 353.6,825.85 112.18,144.45 228.58,263.04 260.92,263.04 12.98,0 -23.74,-45.24 -79.76,-101.32 -217.8,-215.62 -411.86,-592.96 -498.11,-974.61l-32.34 -137.96 62.57 -60.39c88.37,-90.54 114.22,-77.65 53.91,28.05 -75.47,129.37 -66.89,142.27 32.34,51.71 120.71,-107.82 140.16,-97.03 51.71,32.34 -40.93,62.51 -68.98,116.41 -64.69,122.9 6.49,4.29 56.11,-30.16 112.13,-79.78 56.08,-49.59 105.69,-84.05 109.98,-79.75 6.49,4.29 -25.85,53.9 -66.86,109.92 -92.74,118.59 -101.34,170.38 -17.27,92.74 53.9,-51.73 138.04,-103.52 163.89,-103.52 6.49,0 -21.56,49.61 -64.68,107.81 -43.13,60.4 -73.27,114.3 -68.98,120.77 6.49,4.31 60.39,-34.52 120.7,-88.43 58.29,-53.9 112.19,-97.03 118.6,-97.03 6.49,0 -10.79,41.01 -38.76,90.63 -79.84,137.95 -64.68,150.93 45.25,45.24 101.32,-99.15 146.62,-112.13 86.24,-23.68 -60.4,86.25 -36.65,90.54 51.8,8.58 107.8,-97.03 148.73,-101.32 79.76,-8.58 -86.25,118.59 -92.74,133.66 -36.64,103.43 25.85,-12.89 75.47,-66.8 114.22,-120.7 36.72,-51.79 69.06,-90.54 73.35,-86.25 4.29,2.11 -6.49,47.42 -23.74,94.85 -43.12,118.59 -8.6,116.48 43.13,0l41.01 -92.74 21.55 194.06 43.13 -135.77c23.67,-73.36 49.53,-133.75 58.2,-133.75 10.78,0 19.38,56.08 19.38,122.97l2.18 124.99 45.23 -146.56c23.74,-79.84 51.8,-144.53 62.58,-144.53 8.61,0 17.27,49.62 17.27,112.19 0,155.23 43.12,105.61 49.53,-56.11 4.38,-103.49 8.67,-116.39 32.34,-84.04 12.96,19.36 25.94,51.71 25.94,68.97 2.11,56.02 34.46,-17.26 51.71,-112.1 17.27,-97.03 47.43,-86.25 71.17,23.68l15.07 79.75 25.88 -107.81 23.74 -107.81 62.51 129.38c56.09,118.59 60.38,150.93 62.57,370.93 0,222.03 2.12,237.18 30.15,183.28 43.12,-81.96 58.21,-472.26 23.76,-627.5 -62.58,-278.11 -265.24,-523.96 -547.72,-659.82 -140.16,-66.81 -515.32,-170.32 -670.55,-187.58 -60.39,-6.48 -51.78,-15.09 116.4,-114.29 228.6,-137.98 612.34,-450.63 823.67,-672.72 254.44,-267.35 429.13,-547.66 461.48,-737.43l15.07 -97.03 47.41 150.94c28.06,81.95 69,187.59 92.74,235zm-1405.83 1500.75c278.11,71.17 239.3,84.07 -86.24,30.16 -105.7,-17.18 -237.19,-32.34 -291.09,-32.34 -90.63,-2.11 -94.92,-4.29 -53.91,-34.46 51.71,-38.83 168.12,-28.05 431.24,36.64zm2981.98 -51.71c-21.56,4.29 -38.74,17.19 -38.74,27.97 0,19.45 -258.75,56.08 -506.71,73.35 -211.34,12.9 -118.6,-17.27 204.84,-68.97 247.96,-38.83 431.24,-56.11 340.61,-32.35zm-3128.62 122.88c2.11,0 -47.42,19.39 -107.81,38.84 -88.43,27.96 -103.52,30.15 -71.18,6.41 43.13,-32.35 43.13,-32.35 0,-32.35 -21.56,0 -84.05,10.78 -135.84,23.74 -129.37,30.16 -137.98,6.49 -10.78,-32.35 66.86,-19.36 146.62,-28.03 213.51,-19.36 60.31,6.41 109.92,12.9 112.1,15.07zm3100.65 21.57c84.06,36.63 103.44,68.97 27.97,43.12 -27.97,-8.67 -103.43,-28.05 -168.12,-43.12l-118.59 -25.86 92.65 -2.2c49.62,-2.17 125.09,12.99 166.09,28.06zm-278.19 88.36c58.19,30.23 133.67,77.64 170.39,105.7l64.68 51.72 -53.91 45.31c-191.94,159.53 -472.25,206.95 -806.46,135.86 -189.77,-38.83 -191.88,-41.01 -140.15,-75.47 64.68,-47.5 15.07,-47.5 -62.51,-2.19 -75.47,45.32 107.81,-125.07 215.62,-198.36 174.61,-120.77 439.85,-148.82 612.34,-62.57zm-2373.95 30.23c140.15,68.98 377.34,247.96 377.34,284.6 0,15.09 -21.56,10.78 -53.91,-10.78 -73.35,-47.42 -90.62,-43.12 -41,10.78 41,47.43 41,47.43 -6.5,21.56 -34.46,-17.25 -75.47,-17.25 -161.72,2.2 -62.5,12.89 -196.16,25.85 -297.48,25.85 -172.51,2.12 -196.26,-4.29 -353.67,-79.76 -90.56,-45.32 -161.71,-94.91 -157.42,-107.81 8.67,-32.34 222.11,-161.71 306.25,-185.48 129.36,-38.81 254.36,-25.85 388.11,38.84zm3404.62 605.85c56.11,200.55 148.76,386.01 252.28,515.38 51.79,62.51 112.1,140.16 131.55,172.5l38.83 56.02 0 -68.98c0,-38.83 -28.05,-148.76 -64.68,-245.79 -34.55,-99.2 -60.4,-181.16 -56.11,-185.45 10.79,-12.9 62.51,77.64 133.69,230.69 51.79,116.48 62.57,168.21 62.57,306.24 0,103.44 -10.78,176.8 -25.94,194.06 -21.56,19.37 -27.96,19.37 -27.96,-8.66 0,-17.27 -58.29,-103.52 -129.38,-187.59 -194.06,-230.69 -301.86,-465.77 -353.66,-761.15 -32.34,-196.17 -12.89,-202.66 38.81,-17.27zm-4851.48 51.8c-45.3,230.69 -142.33,450.62 -284.6,633.9 -66.86,86.25 -144.44,187.57 -170.38,224.29 -64.69,86.25 -79.76,47.42 -66.8,-172.5 8.6,-138.04 23.67,-194.06 90.53,-325.63 45.33,-86.25 86.25,-153.11 92.74,-144.44 6.49,6.49 -12.95,73.29 -43.12,148.75 -30.23,75.47 -60.4,174.68 -68.98,222.09l-15.16 84.08 43.13 -66.8c23.74,-38.84 77.64,-94.92 120.77,-127.26 88.45,-68.98 200.55,-275.93 260.94,-491.56 23.68,-79.84 49.53,-144.53 56.02,-144.53 8.67,0 0,71.18 -15.09,159.61zm-610.21 112.1c-215.62,245.78 -273.84,558.44 -166.03,903.43 53.91,170.38 71.18,200.55 215.63,351.49 86.24,90.53 168.2,187.56 183.27,213.5 30.17,60.31 30.17,153.05 0,282.43 -34.52,140.15 -62.49,161.71 -62.49,51.78 0,-133.75 -45.32,-204.84 -271.72,-437.73 -355.78,-364.44 -431.24,-653.35 -267.33,-1017.71 62.49,-140.15 71.09,-120.79 17.18,38.75 -34.45,101.41 -40.94,159.6 -30.16,269.53 12.98,144.53 66.89,336.39 99.23,355.77 10.78,6.49 4.29,-32.34 -15.16,-88.36 -25.85,-73.36 -30.17,-148.82 -21.56,-297.58 15.16,-280.31 71.17,-420.46 241.56,-590.76 155.22,-157.43 204.84,-178.99 77.58,-34.54zm6106.38 30.16c198.44,213.51 288.97,465.77 269.53,754.68 -6.41,77.64 -32.35,189.77 -58.2,247.96 -40.95,99.21 -43.12,103.52 -4.31,53.9 99.23,-127.19 150.93,-498.03 90.56,-655.46 -34.46,-88.43 -12.9,-94.83 34.52,-8.58 30.16,53.9 38.83,118.59 38.83,275.93 0,284.69 -51.79,390.3 -332.1,677.1 -237.18,243.67 -263.06,282.42 -282.42,422.57l-12.98 97.03 -25.85 -86.25c-15.07,-47.42 -25.86,-135.77 -25.86,-196.17 0,-118.6 17.19,-150.94 213.43,-353.66 295.4,-310.48 342.81,-711.56 127.19,-1099.67 -36.63,-64.69 -94.85,-150.94 -131.48,-189.69 -36.64,-36.72 -56.09,-69.06 -43.13,-69.06 12.89,0 77.58,58.28 142.27,129.37zm1030.69 34.52c299.76,239.39 429.13,457.12 446.32,756.88 10.77,194.05 -6.41,258.75 -107.81,409.68 -71.09,103.43 -245.79,200.46 -360.07,198.35l-77.58 0 92.65 -30.23c131.55,-40.95 228.58,-122.89 286.8,-241.47 45.3,-88.37 51.79,-135.87 51.79,-329.93 0,-215.62 -4.37,-235 -73.36,-377.34 -53.9,-109.92 -125.07,-200.46 -263.05,-340.61 -207.02,-207.04 -207.02,-213.51 4.31,-45.33zm-8055.58 -73.26c-34.54,25.85 -122.97,105.61 -196.25,176.78 -280.31,282.42 -373.03,668.43 -239.36,989.69 38.83,88.42 159.6,228.58 217.8,252.25 40.94,17.27 40.94,19.45 -10.79,19.45 -79.75,2.11 -222.08,-129.38 -293.26,-273.82 -51.73,-107.81 -60.31,-148.82 -60.31,-317.03 0,-176.78 6.4,-209.13 73.27,-340.61 79.78,-166.1 252.27,-353.67 433.44,-474.37 125,-86.25 183.27,-110.01 75.46,-32.34zm7678.24 161.71c47.42,81.87 99.21,174.61 114.28,209.13 49.62,120.71 110.01,411.8 110.01,541.17 0,209.21 -34.54,207.02 -49.61,-4.29 -15.07,-230.72 -109.99,-554.15 -217.8,-750.39 -101.34,-185.39 -69,-181.1 43.12,4.38zm-7451.83 49.53c-110.01,220 -189.77,515.37 -207.04,771.95 -8.58,109.99 -19.37,194.06 -23.74,189.74 -23.67,-23.74 -4.29,-424.75 25.94,-541.23 36.63,-135.77 127.17,-347.11 217.73,-502.33 88.43,-148.82 79.76,-103.52 -12.89,81.87zm8749.85 321.32c77.65,155.22 79.85,170.32 79.85,388.11 0,202.67 -6.49,243.68 -56.11,349.29 -71.15,148.76 -191.85,276.02 -334.21,344.99 -178.96,86.26 -502.4,79.79 -623.1,-12.95 -38.84,-30.17 -36.72,-30.17 27.96,-8.6 41.01,15.09 153.12,21.55 258.75,15.09 155.31,-6.49 207.02,-19.38 304.05,-71.18 146.64,-79.75 269.52,-219.91 327.74,-375.16 88.43,-237.18 23.74,-612.32 -144.46,-832.32 -94.83,-127.19 -92.72,-153.05 4.31,-43.12 41.01,47.5 109.98,159.6 155.22,245.85zm-9879.75 -185.46c-140.15,183.28 -219.94,493.82 -181.1,700.77 21.56,122.89 94.85,247.97 211.33,364.44 140.15,140.16 256.55,187.57 495.93,200.47l204.84 10.78 -116.48 30.23c-230.71,58.19 -474.37,-15.07 -664.14,-204.84 -150.93,-150.93 -189.68,-258.74 -189.68,-515.38 0,-196.17 6.41,-228.51 66.8,-355.77 58.2,-122.89 187.57,-301.87 217.8,-301.87 4.29,0 -15.07,32.34 -45.3,71.17zm215.62 19.45c-131.48,228.52 -159.54,592.96 -60.39,784.82 77.64,153.13 230.78,267.35 465.76,355.78l110.01 40.94 -118.6 -12.89c-239.38,-23.74 -450.68,-172.5 -539.05,-377.34 -90.62,-211.33 -45.32,-541.23 107.82,-782.73 79.75,-125.06 105.61,-131.55 34.45,-8.58zm9379.54 71.09c142.32,327.81 129.37,679.21 -34.46,877.64 -77.67,94.84 -241.57,174.61 -426.95,209.14 -181.17,34.46 -194.06,15.07 -25.86,-32.34 161.72,-45.31 338.5,-157.43 407.49,-256.64 148.75,-217.74 153.13,-556.24 12.98,-879.67 -8.68,-19.45 -8.68,-36.72 -2.2,-36.72 8.6,0 38.83,53.91 69,118.59zm-7098.27 122.97c-8.58,15.07 -53.9,79.76 -101.32,144.45 -86.24,116.41 -215.62,373.04 -241.47,482.96 -23.76,90.55 -62.57,101.32 -47.5,12.97 23.74,-114.3 174.67,-405.39 284.68,-543.35 92.66,-114.3 144.45,-159.6 105.61,-97.03zm4929.15 306.16c116.4,187.57 183.28,360.07 161.72,416.17 -8.67,23.68 -32.34,-21.56 -73.35,-135.86 -32.35,-94.92 -105.64,-243.67 -161.72,-332.1 -161.72,-250.08 -176.81,-280.31 -99.14,-194.06 36.63,41.01 114.22,153.11 172.49,245.85zm1043.57 112.1c28.05,442.03 88.45,644.69 256.57,840.93 168.21,191.88 515.38,301.87 795.69,250.16 181.09,-34.54 375.15,-131.57 480.85,-243.67l86.25 -92.74 -90.63 79.78c-314.76,273.82 -761.07,312.65 -1080.21,97.03 -219.92,-150.93 -340.71,-401.02 -349.29,-720.15 -6.49,-243.68 4.29,-284.6 21.56,-88.43 19.36,200.53 127.17,444.2 254.37,569.28 161.72,157.34 405.39,226.4 698.65,196.17 323.44,-32.34 560.62,-228.51 651.16,-534.76 38.83,-131.48 45.32,-403.19 10.79,-523.89 -40.93,-146.65 -2.19,-112.19 45.32,43.12 122.88,390.23 0,927.17 -265.24,1159.98 -133.66,118.59 -297.58,202.73 -463.58,239.36 -88.43,19.38 -105.71,25.87 -58.2,28.05 92.65,2.11 293.2,-51.79 433.35,-118.59 280.31,-133.66 569.29,-556.32 569.29,-838.81 0,-40.95 8.58,-75.47 19.36,-75.47 21.57,0 10.78,144.54 -21.56,319.15 -56.09,291.09 -312.65,625.3 -582.18,754.67 -75.47,36.63 -219.91,88.42 -321.23,114.28 -213.51,53.9 -403.28,47.43 -679.21,-23.74 -355.77,-92.65 -532.65,-217.74 -649.06,-461.41 -94.83,-196.23 -97.03,-273.82 -6.47,-135.84 157.4,237.19 386,383.8 657.64,424.75 219.92,30.23 250.15,23.74 103.5,-23.67 -269.53,-84.14 -448.49,-258.75 -526.07,-511.01 -66.89,-213.51 -71.18,-284.68 -53.91,-709.44 19.37,-420.45 38.75,-424.77 62.49,-15.09zm-8946.09 36.66c0,286.78 4.29,314.83 56.02,426.93 116.48,247.97 306.16,383.83 592.96,431.24 170.38,28.05 392.41,2.2 510.99,-58.2 235.08,-122.88 420.47,-446.31 426.96,-741.77 0,-71.09 6.47,-86.25 17.25,-53.91 40.94,99.21 -21.57,472.26 -105.61,636.09 -144.54,282.48 -498.13,448.51 -836.63,388.11 -198.35,-34.46 -321.32,-99.14 -465.77,-243.59 -69,-71.17 -114.3,-105.69 -99.14,-79.84 53.9,101.41 202.64,237.19 321.23,295.47 112.12,56.01 140.16,60.3 390.32,60.3 245.77,0 280.3,-4.29 388.12,-56.01 198.35,-92.74 340.62,-273.82 435.53,-547.72 34.46,-99.15 47.41,-202.67 56.02,-448.44 4.38,-174.69 17.27,-317.02 25.94,-317.02 15.07,0 34.45,159.6 56.02,506.71 34.52,506.71 -185.4,890.54 -580.01,1013.42l-90.53 30.23 88.36 0c103.5,2.11 284.6,-47.42 418.35,-116.48 114.22,-58.2 247.97,-191.88 345,-344.99l68.97 -107.82 -15.07 86.25c-36.72,209.22 -224.29,448.52 -431.25,549.84 -263.12,127.26 -636.08,178.99 -881.93,120.77 -651.18,-153.11 -989.68,-530.45 -981.08,-1097.47l2.18 -155.32 30.17 189.77c32.34,213.51 81.93,340.69 189.74,487.33 88.45,120.71 288.91,265.24 461.41,336.33 125.08,51.79 370.94,84.13 370.94,51.79 0,-10.78 -32.35,-19.45 -71.18,-19.45 -38.84,0 -148.82,-36.63 -243.68,-81.87 -209.13,-103.52 -413.97,-306.25 -470.05,-470.07 -62.51,-185.46 -88.36,-461.48 -60.4,-649.05 23.74,-153.05 64.69,-329.92 75.47,-329.92 2.18,0 4.38,138.04 4.38,308.36zm2975.58 349.29c-94.92,515.38 -211.34,718.03 -571.4,1009.12l-75.47 60.38 75.47 -38.81c40.93,-21.57 174.61,-135.87 293.2,-254.46 194.06,-191.88 230.69,-239.3 314.83,-420.46 53.9,-112.1 120.7,-271.64 146.64,-351.4 25.86,-81.95 51.71,-142.35 56.02,-138.04 17.25,15.07 -75.47,439.91 -118.59,556.31 -157.43,409.67 -541.17,746.09 -1041.48,912.09 -157.33,51.73 -614.51,133.67 -636.08,112.11 -6.4,-4.3 25.94,-17.25 71.18,-25.86 235.07,-41.01 666.31,-280.31 884.05,-487.32 189.74,-181.1 377.34,-424.78 450.69,-584.3 30.14,-66.88 75.47,-207.03 101.32,-310.53 77.58,-329.92 84.07,-355.78 94.85,-347.11 4.29,6.41 -15.09,144.45 -45.23,308.28zm4717.73 -30.17c77.65,316.96 131.55,426.95 342.88,687.81 312.65,383.83 679.21,640.46 1047.88,735.29 150.93,38.83 213.51,62.51 161.71,62.51 -86.25,0 -482.97,-73.29 -642.48,-120.71 -506.72,-146.64 -868.98,-467.87 -1047.97,-925.06 -60.37,-153.04 -135.84,-442.02 -118.59,-457.09 2.2,-2.12 32.34,62.57 64.68,148.82 66.89,172.5 187.6,377.34 327.75,558.42 101.32,131.57 329.9,351.48 403.19,385.94 25.94,12.96 10.78,-6.41 -32.34,-43.13 -127.19,-107.81 -329.83,-370.84 -403.19,-526.09 -40.95,-86.25 -88.36,-247.96 -120.7,-416.15 -30.23,-153.05 -60.4,-299.69 -64.69,-329.93 -8.67,-38.74 -6.5,-45.23 8.58,-21.55 10.78,17.26 43.12,135.86 73.29,260.92zm3292.6 -144.44c0,6.49 -8.67,17.26 -21.56,23.67 -10.78,6.49 -21.56,2.18 -21.56,-8.6 0,-12.97 10.78,-23.74 21.56,-23.74 12.89,0 21.56,4.38 21.56,8.67zm-7624.42 297.58c-17.24,86.24 -51.7,224.19 -77.64,308.27 -25.85,81.95 -45.24,159.6 -40.95,168.2 6.49,34.52 -217.8,316.94 -347.17,433.42 -127.2,116.42 -338.5,241.48 -517.49,306.16 -166.01,62.51 -489.44,153.14 -478.66,135.87 4.29,-8.67 62.57,-32.35 125.06,-49.62 185.48,-53.9 495.93,-219.91 666.25,-355.77 355.78,-284.6 558.5,-582.18 642.57,-944.43 30.23,-133.68 36.64,-157.42 49.6,-157.42 4.31,0 -4.29,71.18 -21.57,155.32zm3948.07 60.3c56.02,222.11 148.74,390.3 323.44,588.67 284.6,325.61 569.19,517.49 927.17,620.99 103.43,30.17 116.39,38.83 62.49,38.83 -105.61,2.12 -485.15,-131.55 -653.34,-232.89 -189.77,-112.1 -405.39,-310.45 -508.82,-467.88 -75.46,-112.1 -150.94,-355.77 -194.06,-616.7 -21.56,-131.48 0,-94.84 43.12,68.98zm-41.01 860.37c68.98,73.29 172.5,168.21 232.87,209.14 153.14,101.34 79.78,92.74 -99.2,-15.08 -194.06,-114.3 -310.47,-273.81 -349.28,-474.36 -12.9,-64.69 -8.61,-60.4 41.01,36.63 27.96,60.4 107.8,170.32 174.6,243.67zm-3728.07 -99.2c-71.18,155.22 -168.2,260.92 -299.76,325.61 -159.53,79.76 -230.69,73.29 -88.36,-8.67 140.16,-81.87 334.22,-275.93 385.94,-392.41 21.57,-47.43 43.13,-75.47 47.42,-62.51 4.38,12.89 -15.07,75.47 -45.24,137.98zm105.64 228.58c-60.4,94.85 -107.82,131.48 -232.9,185.39 -109.92,45.3 -103.43,28.05 12.96,-40.95 53.91,-30.14 133.69,-99.2 178.99,-150.93 45.24,-51.71 84.07,-92.72 88.36,-88.43 4.38,4.38 -17.18,45.3 -47.41,94.92zm3596.56 153.05c60.39,36.72 94.85,64.68 77.67,64.68 -58.28,0 -254.46,-127.19 -310.54,-200.46 -90.56,-118.59 -64.69,-138.04 32.34,-28.05 49.6,56.02 140.15,129.37 200.53,163.83zm4148.54 -43.13c12.95,32.34 12.95,99.21 4.37,150.94 -8.66,51.79 -12.98,103.52 -8.66,116.48 4.29,12.89 -15.1,51.72 -45.24,88.36 -28.06,34.52 -51.79,53.9 -53.91,41.01 0,-12.96 19.36,-41.01 43.13,-62.57 23.67,-21.57 43.12,-49.53 43.12,-60.31 0,-12.98 -34.54,17.18 -77.67,66.8 -207.01,243.65 -636.08,327.72 -1660.28,327.72 -355.78,0 -754.68,10.78 -884.05,21.56 -465.76,45.3 -961.69,230.78 -1293.73,480.86 -278.1,213.5 -558.41,625.3 -644.67,953.03 -81.95,314.82 -62.57,750.38 47.42,1054.43 122.89,342.81 390.24,640.37 728.82,815.06 310.45,157.35 390.24,178.9 711.55,178.9 241.48,0 310.46,-8.59 495.93,-60.3 418.27,-116.48 661.94,-276.02 858.11,-564.99 49.62,-71.09 112.19,-187.57 140.15,-258.75 36.73,-97.03 45.31,-109.92 36.73,-53.91 -6.5,41.02 -51.79,157.43 -99.23,256.64 -183.28,373.04 -552.01,640.37 -1011.22,735.22 -112.19,23.74 -325.64,49.62 -474.37,58.28 -332.1,17.19 -273.91,45.24 129.37,64.69 228.52,8.58 297.5,4.29 461.39,-34.54 105.63,-25.86 252.28,-75.47 323.43,-109.99 73.29,-36.64 112.13,-49.53 88.45,-30.16 -120.79,97.03 -487.35,243.67 -759.05,301.87 -230.7,49.61 -698.6,51.72 -899.12,2.19 -224.23,-56.1 -407.5,-153.13 -564.93,-299.75 -144.44,-135.86 -172.5,-191.88 -47.41,-97.03 163.82,127.26 653.35,297.56 836.63,293.27 62.49,0 51.7,-8.68 -75.47,-43.13 -265.23,-75.47 -493.81,-198.35 -646.86,-344.99 -77.67,-73.36 -135.87,-138.04 -133.75,-142.33 4.37,-4.32 112.18,51.78 237.18,122.88 127.26,71.18 317.03,159.6 422.64,194.06 241.49,81.96 306.18,81.96 84.07,2.18 -267.35,-97.03 -463.59,-241.48 -666.25,-491.62 -153.12,-191.88 -310.45,-506.71 -340.68,-685.7 -122.91,-687.81 -19.39,-1231.15 299.76,-1576.15 97.03,-103.52 116.38,-153.12 32.34,-73.35 -191.95,181.16 -332.1,439.9 -422.66,789.19 -58.2,219.93 -68.98,293.29 -68.98,515.31 0,265.24 56.02,562.8 129.37,707.27 43.13,84.13 21.57,97.03 -32.34,21.56 -133.66,-191.88 -194.06,-401.02 -213.51,-743.9 -15.07,-284.61 19.45,-595.07 81.96,-756.79 45.3,-112.18 51.79,-150.93 19.45,-101.4 -101.41,153.11 -174.7,536.94 -174.7,905.61 0,226.4 8.61,297.58 56.11,450.69 30.14,99.14 49.52,185.39 45.23,189.77 -12.89,15.07 -118.59,-224.29 -170.32,-390.32 -41.01,-133.66 -47.41,-200.53 -47.41,-519.67 0,-316.94 6.4,-390.23 49.53,-539.05 86.25,-295.38 250.14,-545.46 534.76,-804.2 558.51,-508.92 1533.09,-784.91 2553,-724.54 681.32,40.95 1015.53,19.39 1444.66,-90.54 30.15,-8.66 49.53,-8.66 43.13,-2.17 -10.78,10.78 -256.63,88.42 -506.71,157.4 -239.38,64.69 -461.48,81.96 -1132.01,84.07 -651.25,2.18 -689.99,4.38 -948.74,58.28 -502.42,107.81 -875.46,263.04 -1185.91,493.73 -135.87,99.23 -388.12,357.98 -388.12,396.73 0,4.37 66.8,-56.03 146.55,-135.78 263.12,-258.75 849.59,-564.99 1306.69,-683.59 265.24,-66.8 646.86,-118.59 894.83,-118.59 103.52,0 347.19,15.16 543.37,34.52 409.67,40.95 959.51,30.17 1190.2,-23.74 245.86,-53.9 392.5,-150.93 491.64,-321.25 71.16,-125.06 77.65,-196.24 25.86,-256.55 -36.64,-38.83 -36.64,-38.83 19.44,-12.98 32.35,12.98 66.8,51.73 77.59,84.07zm-12053.25 -45.24c-19.38,32.35 -19.38,60.4 2.19,131.49 51.72,172.5 252.27,338.59 480.85,401.08 181.1,47.44 746.01,62.51 1056.55,28.05l265.23 -30.23 -291.09 -12.89c-159.6,-8.67 -386,-34.52 -504.59,-58.2 -235.01,-49.61 -536.88,-135.86 -521.81,-148.82 4.31,-4.31 112.13,12.96 241.5,41.01 207.02,40.92 284.6,47.41 655.53,40.92 1304.51,-23.74 1552.47,-2.17 2175.58,183.28 502.42,150.94 991.86,513.2 1263.58,931.49 112.11,174.67 148.74,260.92 209.14,487.33 109.92,411.79 23.67,1093.17 -166.01,1317.4l-36.73 43.12 15.17 -43.12c109.92,-332.04 146.55,-756.79 86.25,-1045.76 -32.35,-161.72 -114.31,-409.69 -116.48,-357.9 -2.12,8.61 12.96,77.58 32.34,150.94 25.85,92.74 36.63,226.4 38.81,465.7 0,282.48 -6.47,360.15 -47.41,506.71 -47.42,172.5 -183.28,485.15 -211.34,485.15 -6.46,0 -6.46,-17.19 2.21,-38.75 45.23,-112.19 140.15,-659.85 140.15,-804.29 0,-424.75 -176.88,-937.95 -409.68,-1181.63 -41.01,-45.3 -60.4,-60.37 -41.01,-36.63 299.75,377.34 411.86,894.83 312.64,1446.78 -79.77,450.69 -237.18,737.49 -556.32,1019.91 -174.61,153.11 -284.6,222.09 -465.7,297.56 -166,69 -88.42,64.68 103.52,-4.29 140.16,-49.62 209.13,-81.96 495.93,-239.37l97.03 -51.72 -129.37 125.08c-144.53,140.15 -308.36,232.81 -549.84,319.05 -140.15,47.51 -148.82,53.91 -64.68,43.12 271.64,-36.63 543.34,-137.97 707.17,-265.14 51.79,-38.84 99.21,-69.07 103.52,-62.57 4.29,4.29 -30.16,51.78 -77.58,105.69 -94.92,107.81 -377.34,267.33 -582.18,327.73 -254.45,77.58 -662.02,62.51 -1013.42,-32.35 -198.44,-56.08 -552.04,-200.55 -625.3,-256.63 -34.54,-27.97 4.29,-17.18 118.59,32.34 239.3,103.52 515.3,146.64 851.71,135.87 150.93,-4.32 288.88,-19.39 312.65,-34.46 34.45,-19.45 8.58,-23.76 -150.94,-25.94 -741.78,-2.12 -1276.54,-232.81 -1565.45,-677.03 -86.25,-131.55 -176.79,-347.17 -163.9,-388.12 4.38,-12.96 23.74,25.88 45.31,88.45 56.1,166.01 230.71,403.19 385.94,517.49 181.16,133.67 336.38,209.13 577.89,280.31 174.67,51.71 239.35,58.2 483.03,60.3 401.01,0 659.76,-81.87 970.3,-301.86 250.07,-178.9 353.57,-323.43 491.55,-683.5 133.74,-355.78 155.31,-657.65 71.18,-991.86 -94.86,-370.87 -260.86,-672.74 -513.21,-922.88 -295.38,-297.49 -651.15,-452.81 -1280.76,-562.73 -252.26,-43.12 -351.47,-47.41 -1075.91,-49.61 -793.51,-2.18 -800,-2.18 -1041.48,-62.49 -133.66,-32.34 -293.27,-77.67 -355.77,-101.41 -112.11,-40.95 -243.68,-155.22 -293.27,-252.25 -34.46,-66.8 -30.17,-226.41 10.78,-282.43 41.02,-58.28 84.14,-64.68 47.41,-6.49zm4519.45 92.74c-107.81,112.1 -150.93,114.22 -51.7,2.12 53.9,-60.4 101.32,-99.15 105.61,-88.37 4.31,10.79 -21.56,49.53 -53.91,86.25zm3046.76 58.2c21.56,10.78 32.34,28.05 23.67,36.63 -23.67,21.57 -168.12,-131.55 -168.12,-176.78 0,-28.06 17.19,-17.28 53.9,38.83 30.15,43.12 71.09,88.36 90.55,101.32zm-3915.71 241.47c409.68,84.08 674.89,204.84 1022.09,461.41 204.84,150.94 454.91,426.96 536.85,588.67 21.57,41.01 43.12,66.87 49.61,60.38 6.5,-6.48 -32.33,-101.32 -86.24,-211.31 -73.35,-153.05 -138.04,-243.68 -269.53,-383.83 -176.79,-189.68 -489.44,-431.24 -621.01,-478.66 -40.92,-12.89 -73.27,-34.46 -73.27,-43.12 0,-17.28 12.9,-12.9 252.26,86.24 381.63,159.61 651.15,429.14 868.98,862.49 135.77,276 178.89,459.28 181.07,802.09 2.2,209.22 -8.58,342.88 -36.63,474.37 -45.31,209.22 -144.44,476.54 -211.33,571.39 -51.71,73.36 -51.71,73.36 58.21,-191.88l79.77 -194.06 0 -355.77c0,-373.02 -36.64,-597.25 -125,-750.37 -19.45,-32.34 -28.06,-40.94 -21.57,-17.26 92.66,288.97 103.44,689.99 30.15,1011.3 -40.93,176.79 -228.58,672.72 -247.96,653.36 -4.29,-2.2 15.09,-73.36 45.32,-157.43 66.8,-194.06 118.59,-452.8 133.66,-666.31 32.34,-474.37 -168.2,-983.2 -549.83,-1392.87 -392.41,-420.47 -1140.68,-743.9 -1744.42,-756.86 -105.63,-2.11 -148.76,-10.78 -114.22,-19.38 101.33,-28.05 623.1,0 843.04,47.41zm5405.61 -56.08c-6.41,6.49 -107.81,30.23 -224.22,51.79 -713.73,137.98 -1185.92,370.85 -1567.55,778.35 -170.39,178.99 -247.97,291.09 -360.07,515.38 -110.01,222.11 -153.13,422.58 -153.13,737.4 -2.18,260.95 40.94,498.13 129.37,730.94 66.89,174.68 34.54,157.43 -47.42,-23.67 -90.54,-196.24 -135.86,-336.4 -163.89,-502.42 -47.44,-260.92 -17.27,-700.78 60.37,-935.76 21.57,-60.4 34.55,-112.18 32.35,-112.18 -40.93,0 -166.01,409.67 -200.53,646.86 -25.88,200.55 0,528.27 60.37,705.15 69,206.95 71.18,215.62 36.66,155.22 -122.91,-211.33 -211.33,-580.06 -211.33,-892.72 0,-394.51 60.39,-644.68 232.89,-955.13 215.62,-392.5 554.13,-674.92 998.33,-825.85 172.5,-60.4 163.92,-51.8 -51.71,53.9 -217.82,107.81 -487.35,325.55 -653.35,532.56 -58.2,71.18 -150.94,217.83 -209.13,327.75 -56.11,107.81 -110.01,209.13 -120.8,222.09 -25.85,32.34 -131.55,314.85 -120.76,323.43 4.37,6.49 30.23,-47.42 56.08,-114.28 202.66,-534.76 735.31,-1024.2 1360.62,-1246.31 226.39,-79.76 495.93,-142.27 711.54,-161.72 230.7,-19.38 420.47,-25.85 405.31,-10.78zm-3963.06 140.16c140.16,94.91 338.51,288.97 454.92,442.02 101.32,135.86 258.74,450.69 319.12,636.08 58.21,187.66 99.23,493.82 69,523.98 -17.28,17.26 -23.68,6.47 -23.68,-32.34 0,-92.74 -101.41,-459.29 -181.16,-655.47 -153.05,-375.22 -409.69,-720.22 -674.92,-905.61 -79.76,-56.08 -155.22,-112.1 -168.12,-122.88 -36.72,-34.54 81.87,32.34 204.84,114.22zm-5077.89 -43.13c34.46,36.72 34.46,43.13 6.41,32.34 -19.38,-8.6 -40.95,-27.96 -47.42,-45.23 -15.09,-41.01 -4.31,-38.84 41.01,12.89zm6919.25 41.01c-241.47,157.43 -476.54,446.32 -640.37,782.73 -125.08,258.74 -183.28,437.64 -215.62,657.64 -12.96,99.15 -30.23,178.9 -36.64,178.9 -25.94,0 21.57,-411.79 64.69,-549.83 135.78,-435.53 519.61,-940.06 847.33,-1114.74 122.97,-64.69 112.19,-40.95 -19.39,45.3zm5062.82 28.05c-43.13,43.13 -28.06,68.98 17.27,27.97 23.67,-21.56 43.12,-27.97 43.12,-17.18 0,47.41 -150.93,153.04 -308.36,219.91 -222.11,92.74 -595.14,153.05 -935.84,153.05 -301.87,0 -349.28,32.34 -56.01,41.01 416.16,10.78 715.83,125.08 953.02,362.26 110.01,112.11 157.42,176.79 194.06,273.82 49.61,133.67 90.56,381.63 77.67,482.97 -4.38,32.34 -12.99,112.1 -21.57,176.79 -34.54,301.87 -235.07,517.49 -528.27,569.28 -66.89,12.9 -62.57,6.49 38.75,-38.83 62.57,-30.14 166.09,-105.61 228.58,-170.3 99.23,-97.03 125.08,-142.35 163.91,-271.73 62.49,-200.52 53.91,-487.32 -19.45,-674.89 -90.56,-235 -362.26,-461.41 -661.96,-556.32 -146.62,-45.25 -633.88,-81.88 -633.88,-47.42 0,10.78 84.05,25.85 189.69,32.34 459.29,32.35 828.02,241.48 987.56,564.91 58.2,120.77 62.58,146.65 62.58,377.34 -2.2,284.68 -23.77,349.37 -194.06,530.45 -88.45,94.85 -92.74,97.03 -45.32,25.87 73.28,-114.3 107.8,-321.25 77.66,-459.29 -77.66,-342.82 -405.39,-623.13 -873.26,-743.9 -340.71,-90.53 -1000.53,-84.07 -1384.36,10.79 -539.06,131.55 -985.37,556.32 -1065.15,1013.41 -75.47,442.03 159.54,843.11 573.6,972.48 66.8,21.56 73.26,28.05 32.34,28.05 -73.36,2.11 -269.53,-92.74 -379.54,-181.16 -204.84,-168.12 -321.23,-467.88 -306.16,-787.02 8.6,-166.01 19.38,-211.25 88.37,-349.28 181.16,-366.57 465.76,-612.35 909.98,-787.02 86.25,-34.46 105.61,-47.44 58.2,-40.95 -304.05,49.61 -821.54,401.01 -1011.31,689.99 -133.67,200.55 -168.12,321.25 -168.12,584.29 0,226.4 4.29,243.67 73.27,381.71 194.05,388.12 556.33,605.86 940.15,567.02 351.4,-36.63 554.13,-275.93 554.13,-651.15 -2.18,-172.5 -17.28,-217.74 -131.55,-338.53 -58.22,-64.69 -64.69,-77.65 -23.68,-51.71 157.34,97.03 234.98,303.99 206.95,558.42 -19.38,178.99 -109.92,342.82 -239.29,433.44 -118.59,84.05 -112.19,101.33 10.78,38.75 534.67,-273.82 582.18,-1078.11 77.58,-1317.4 -235.01,-112.11 -459.3,-73.36 -621.01,105.63 -161.72,178.96 -125,452.8 73.35,556.3 34.46,17.27 58.2,38.84 51.73,45.33 -23.68,23.67 -209.16,-105.7 -260.86,-183.28 -159.6,-235.07 30.14,-629.68 383.74,-800 174.68,-84.05 308.36,-99.21 517.49,-58.19 291.09,56.01 498.11,211.32 610.23,452.8 135.85,299.69 92.72,739.6 -101.34,1032.8 -86.25,131.56 -370.85,396.79 -526.07,487.33 -196.26,118.59 -317.03,150.94 -552.04,153.05 -390.29,0 -815.05,-159.54 -1075.91,-409.68 -77.66,-73.29 -99.23,-101.32 -49.61,-60.31 247.96,198.35 523.98,310.45 853.82,347.11 224.29,25.85 357.95,6.46 567.11,-81.96 112.1,-45.24 81.93,-60.31 -34.46,-15.07 -144.53,51.79 -422.66,45.3 -625.3,-15.1 -422.67,-129.37 -771.95,-459.27 -909.99,-860.28 -66.8,-194.06 -71.09,-618.9 -8.6,-802.18 103.51,-299.7 401.09,-659.76 746.09,-903.43 196.17,-137.96 306.16,-194.06 517.49,-267.33 306.16,-107.81 325.55,-107.81 1336.86,-112.19 1017.7,-2.11 1075.9,-6.4 1302.3,-107.81 60.4,-27.96 140.16,-75.47 174.7,-105.63 66.8,-56.08 103.43,-75.47 58.2,-30.15zm-11913.09 60.31c56.02,36.72 166.01,86.25 243.67,112.19 133.67,45.24 194.06,47.42 1164.36,60.31 592.96,8.67 1056.55,23.74 1099.67,36.72 534.68,157.34 1026.32,457.09 1265.68,771.86 416.17,543.43 405.39,1282.95 -21.56,1750.91 -360.07,392.41 -929.36,554.12 -1349.81,381.63 -112.13,-45.3 -109.93,-15.07 2.17,34.46 189.77,84.13 360.07,114.3 556.33,99.2 327.72,-21.56 620.92,-129.37 864.6,-314.82l116.47 -88.37 -129.37 120.71c-148.82,135.86 -379.54,265.24 -614.52,336.39 -228.6,71.18 -640.46,71.18 -825.85,0 -168.21,-66.86 -530.45,-338.5 -638.27,-480.84 -198.36,-263.05 -291.09,-586.49 -241.49,-849.52 62.51,-342.89 207.04,-552.02 461.41,-668.43 120.77,-56.08 157.43,-62.57 360.15,-62.57 200.46,0 239.3,6.49 349.29,58.28 340.7,159.51 549.83,532.56 429.06,767.57 -45.24,90.54 -159.54,181.16 -260.86,209.13 -36.71,8.67 -28.05,-2.11 30.15,-36.63 94.85,-56.02 185.47,-202.67 185.47,-301.87 0,-73.29 -51.79,-202.67 -103.52,-263.06 -60.39,-66.86 -286.8,-163.89 -383.83,-163.89 -200.52,0 -433.42,144.52 -532.56,332.09 -38.83,73.29 -45.3,125.09 -47.41,314.77 0,204.84 6.4,237.18 60.31,347.17 81.95,170.32 219.99,319.14 349.37,377.34 133.66,62.51 204.84,66.88 86.25,4.31 -211.34,-107.81 -299.76,-271.64 -299.76,-556.33 -2.11,-206.95 36.64,-306.16 161.72,-420.46l71.15 -64.68 -66.86 86.24c-109.92,144.54 -122.89,185.46 -122.89,355.78 0,448.52 345,696.48 836.61,603.74 269.53,-49.53 480.86,-232.8 640.4,-549.83l88.43 -172.5 -8.67 -250.08c-6.4,-243.67 -8.6,-252.25 -101.32,-442.02 -109.92,-222.11 -312.65,-442.02 -532.59,-575.69 -140.15,-84.13 -515.28,-237.19 -554.12,-224.29 -10.78,2.18 25.85,23.74 84.07,47.42 282.48,105.69 448.5,209.22 623.19,386 101.32,101.32 202.64,228.51 241.47,306.16 235.01,446.34 140.16,963.83 -230.69,1257.1 -116.48,92.74 -312.65,176.78 -405.39,172.49 -41.01,0 -25.85,-8.66 49.61,-28.05 332.02,-79.76 575.69,-347.17 640.38,-698.57 77.58,-414.05 -224.29,-925.06 -683.5,-1162.24 -334.21,-172.5 -685.7,-232.89 -1239.83,-215.63 -564.99,17.26 -909.98,129.38 -1160.06,375.23 -267.41,265.15 -338.5,670.54 -159.6,912.01l53.9 75.47 -58.19 -53.9c-73.29,-66.8 -153.05,-200.47 -211.33,-351.4 -60.31,-157.43 -58.2,-394.61 6.49,-565 120.77,-327.72 638.26,-633.9 1075.99,-636.08 53.91,0 112.1,-10.78 129.38,-21.56 81.87,-53.9 -480.86,2.18 -674.92,66.87 -254.46,84.07 -508.89,304.07 -614.52,532.58 -51.8,109.99 -58.2,146.62 -58.2,370.85 0,230.78 4.29,256.63 62.49,375.22 75.46,155.23 209.15,293.2 332.03,347.11 94.92,43.12 125.09,88.42 43.13,64.69 -329.84,-94.86 -489.44,-314.77 -526.1,-726.62 -38.81,-435.56 166.03,-782.73 577.89,-985.4 196.17,-97.03 375.16,-140.15 685.7,-168.18l204.84 -17.27 -150.94 -12.9c-81.95,-8.66 -232.89,-15.07 -329.92,-17.27 -353.66,-4.29 -771.95,-122.88 -968.18,-273.82 -68.98,-51.79 -92.66,-94.91 -49.53,-94.91 10.78,0 66.8,30.23 122.88,64.68zm989.68 1265.76c-56.02,58.2 -127.19,142.28 -155.25,191.86 -64.68,112.13 -103.49,306.19 -84.04,442.03 15.07,105.63 53.9,146.64 53.9,56.1 2.11,-92.73 86.25,-235.07 230.69,-386 137.98,-140.16 327.73,-297.58 362.27,-297.58 8.58,0 -23.76,45.3 -71.18,101.41 -131.55,161.71 -155.22,206.95 -219.91,426.87 -69.06,235.06 -103.52,297.57 -200.55,355.77 -99.21,60.39 -174.67,53.9 -260.92,-21.56 -194.06,-170.32 -150.94,-485.15 99.21,-726.62 81.95,-77.58 310.47,-243.68 338.5,-243.68 6.49,0 -36.63,45.3 -92.72,101.4zm10058.74 153.05c198.35,215.62 263.04,444.21 178.97,620.99 -56.08,118.59 -131.55,166.03 -241.48,153.14 -138.03,-15.16 -185.45,-73.36 -273.81,-338.59 -81.96,-245.79 -185.48,-439.85 -297.58,-556.24 -90.54,-94.91 -64.69,-86.25 99.14,27.96 232.9,161.72 504.6,487.33 513.2,612.41 2.18,19.39 8.67,4.29 17.25,-30.23 8.6,-36.63 8.6,-131.48 2.2,-211.24 -17.27,-161.72 -66.88,-252.34 -235.07,-431.25l-99.14 -107.81 112.1 68.98c62.51,38.83 161.71,125.08 224.22,191.88zm-5112.34 715.85c23.68,101.4 118.59,340.7 351.4,899.2l45.3 109.93 401.1 17.25c219.91,10.78 459.21,19.38 530.38,19.38l131.56 0 -142.33 131.55c-77.58,71.17 -224.23,202.66 -325.55,288.91 -101.41,86.25 -230.78,200.55 -291.09,256.64l-105.7 99.14 103.5 291.08c116.42,334.22 215.62,644.76 239.39,754.68l15.07 75.47 -60.4 -56.02c-129.37,-118.59 -914.19,-627.48 -946.53,-614.52 -30.23,10.78 -224.29,144.45 -787.02,545.54 -103.52,75.47 -163.92,105.61 -168.21,86.25 -2.17,-15.16 47.41,-207.04 112.1,-424.83 64.69,-219.92 133.69,-461.41 153.14,-539.06l36.63 -140.15 -105.69 -92.66c-56.03,-51.79 -245.8,-222.11 -422.58,-377.33l-316.94 -284.69 166.01 -10.78c92.73,-6.4 349.28,-10.78 571.39,-10.78l401.01 0 166.1 -500.22c90.54,-273.84 170.29,-539.06 176.78,-588.67 15.08,-107.81 32.35,-92.65 71.18,64.69zm3089.79 694.36c-4.29,10.78 -36.63,17.19 -73.29,17.19 -34.52,0 -62.48,-6.41 -62.48,-17.19 0,-8.67 32.34,-15.16 73.26,-15.16 40.95,0 69,6.49 62.51,15.16zm-4581.95 1017.72c-142.27,131.48 -388.12,256.56 -616.64,319.13 -183.28,47.42 -627.48,60.32 -748.18,17.19 -56.1,-17.19 -49.62,-19.38 53.9,-12.9 159.52,10.79 508.83,-41 733.12,-107.81 230.69,-68.97 504.51,-198.35 603.74,-284.6 127.17,-110 105.61,-49.61 -25.94,68.99zm3001.51 32.33c336.33,172.51 778.36,280.31 1147.09,284.61 176.78,2.19 209.13,6.48 157.42,23.76 -112.19,34.46 -629.68,27.97 -780.61,-12.99 -299.69,-79.75 -664.05,-273.81 -793.42,-424.74l-43.13 -49.62 75.47 47.43c40.92,28.04 148.74,86.26 237.18,131.55zm-2908.77 172.51c-219.94,202.66 -478.68,308.35 -746.01,299.69 -75.47,-2.12 -99.23,-6.5 -53.91,-10.79 122.89,-12.89 385.92,-73.29 469.99,-107.81 99.21,-40.94 301.87,-178.98 368.74,-252.27 30.16,-30.14 62.51,-56.08 75.47,-56.08 12.98,2.17 -38.82,58.28 -114.28,127.26zm2949.7 142.26c157.42,66.87 373.05,122.97 584.37,148.83 40.93,4.29 -17.26,6.48 -129.37,2.1 -284.69,-12.89 -588.67,-124.99 -715.93,-265.14l-49.52 -56.11 66.8 47.44c38.81,25.85 148.81,81.94 243.65,122.88zm-170.3 181.16c101.32,49.62 267.33,109.93 372.96,135.87 103.52,25.85 183.28,49.53 178.99,53.9 -4.31,6.41 -84.08,0 -178.99,-12.97 -202.66,-28.04 -469.99,-150.94 -612.34,-282.49 -77.65,-73.29 -81.94,-79.76 -19.37,-34.46 40.93,28.05 157.34,92.74 258.75,140.15zm-2587.46 -138.04c-15.16,17.28 -88.45,77.65 -166.09,131.55 -150.94,107.82 -301.87,168.21 -469.99,189.77l-107.81 12.9 118.59 -45.24c263.04,-97.03 383.74,-153.11 506.71,-232.89 146.56,-97.03 155.23,-101.32 118.59,-56.09zm2561.52 360.16c56.08,25.85 131.55,53.9 166.1,62.48 62.48,15.1 60.3,15.1 -21.57,17.28 -116.48,2.11 -319.14,-94.92 -452.8,-222.11l-107.81 -101.33 157.33 99.15c86.25,56.08 202.73,120.76 258.75,144.53zm-2531.37 -120.79c-153.12,118.59 -176.79,131.57 -306.16,172.5 -157.43,47.43 -200.55,34.54 -66.87,-21.57 127.26,-51.7 403.19,-198.35 439.91,-230.69 10.78,-10.78 27.97,-19.45 40.93,-19.45 10.77,0 -36.64,45.3 -107.81,99.21z"/>
   <path class="fil0" d="M12349.88 8550.69c-58.19,245.86 -224.22,569.29 -418.28,812.96 -34.52,45.24 -49.59,75.47 -34.52,68.98 41.01,-15.07 204.84,-243.67 323.43,-450.69 99.21,-174.61 174.68,-401.02 161.72,-491.55 -4.29,-30.23 -15.07,-8.67 -32.35,60.3z"/>
   <path class="fil0" d="M10957.01 9236.39c17.28,105.7 -47.41,166.01 -174.67,166.01 -51.73,0 -129.37,15.16 -170.32,32.34 -103.52,43.13 -178.98,41.02 -293.27,-12.89 -81.96,-36.63 -105.63,-38.83 -159.54,-17.27 -56.08,23.76 -66.86,21.56 -94.91,-15.07 -17.19,-23.74 -27.96,-75.48 -23.67,-122.89 8.6,-97.03 -4.29,-101.4 -53.91,-17.27 -47.41,79.76 -47.41,189.77 2.11,267.35 43.12,68.98 422.64,353.66 495.93,373.03 34.52,10.78 69.06,0 107.81,-30.15 32.34,-25.94 122.97,-84.14 200.55,-131.57 155.23,-94.83 247.97,-189.75 269.53,-275.99 19.45,-69 -21.56,-204.85 -75.47,-254.46 -43.12,-36.63 -43.12,-36.63 -30.17,38.83z"/>
   <path class="fil0" d="M10111.8 10008.32c-140.15,90.56 -286.8,155.24 -312.65,137.98 -34.55,-21.57 -23.76,23.74 19.36,77.64 30.17,36.65 60.4,49.62 122.9,47.43 396.79,-6.49 909.91,-10.78 1039.28,-6.49 138.04,6.49 163.89,0 209.22,-43.12 30.14,-27.97 53.9,-58.2 53.9,-64.68 0,-8.61 -41.01,-21.57 -92.74,-25.86 -60.39,-6.49 -138.04,-40.95 -224.29,-101.34 -146.55,-99.21 -161.71,-103.5 -323.43,-51.7 -99.14,30.14 -129.37,32.34 -206.95,8.58 -49.62,-15.07 -109.99,-30.15 -133.67,-36.64 -25.94,-6.49 -86.24,17.27 -150.93,58.2z"/>
   <path class="fil0" d="M9971.65 10387.85c0,47.42 204.84,278.12 280.3,319.06 75.47,38.83 280.31,60.39 403.19,41.01 84.08,-10.78 120.71,-32.34 189.77,-105.69 97.03,-101.32 222.03,-308.28 148.74,-245.8 -62.49,53.91 -360.07,148.77 -465.77,148.77 -120.7,0 -321.25,-51.74 -452.8,-116.42 -58.2,-25.86 -103.43,-45.3 -103.43,-40.93z"/>
   <path class="fil0" d="M6545.38 11696.66c4.29,4.29 168.18,19.38 364.44,34.45 571.4,38.84 899.12,120.77 1371.31,345 409.68,194.06 674.9,394.61 853.88,649.04 79.76,114.3 131.49,170.32 90.54,99.23 -107.81,-189.77 -364.35,-467.97 -575.68,-625.3 -316.95,-235.07 -909.91,-429.13 -1500.75,-489.53 -215.62,-21.56 -623.12,-30.17 -603.74,-12.89z"/>
   <path class="fil0" d="M14456.57 12132.19c-349.37,32.34 -564.99,75.47 -787.02,153.13 -504.59,181.08 -985.45,556.24 -1149.28,901.23 -101.32,211.34 -131.55,444.21 -84.13,655.54 62.57,276.02 230.77,558.44 424.83,709.37l97.03 77.65 -112.19 -118.59c-237.18,-252.26 -336.32,-495.93 -338.5,-838.82 -2.11,-159.54 8.67,-237.18 47.41,-349.28 157.43,-457.12 584.36,-821.47 1207.49,-1026.31 202.72,-69.07 485.15,-118.6 819.36,-144.54 97.03,-8.6 183.28,-23.67 189.76,-34.45 6.48,-10.78 8.68,-17.27 4.29,-17.27 -4.29,2.2 -146.55,17.27 -319.05,32.34z"/>
   <path class="fil0" d="M14456.57 12326.25c-112.18,15.09 -222.11,28.05 -241.56,28.05 -21.56,2.11 -38.74,8.61 -38.74,17.27 0,10.78 116.39,12.9 258.74,10.78 303.99,-8.66 707.18,23.68 905.61,73.27 178.9,45.33 426.87,157.42 558.42,256.57 58.21,41.01 142.35,129.37 185.47,194.06 86.25,125.08 103.44,142.33 81.88,79.85 -58.2,-159.61 -303.98,-394.61 -532.56,-508.92 -179,-90.54 -336.34,-133.66 -605.86,-163.89 -239.38,-25.85 -310.54,-23.67 -571.4,12.96z"/>
   <path class="fil0" d="M13842.05 13024.84c-28.05,10.78 -4.38,12.96 64.69,6.49 245.76,-25.87 526.07,94.92 648.98,278.19 312.64,465.7 196.23,1112.57 -258.75,1444.67 -45.24,32.34 -77.58,60.31 -69,60.31 19.39,0 176.81,-109.92 265.24,-187.57 101.32,-88.36 211.33,-265.24 265.23,-426.95 68.98,-204.84 56.02,-528.28 -25.94,-705.06 -109.92,-235.01 -254.36,-368.67 -487.26,-446.34 -133.66,-45.3 -325.61,-56.08 -403.19,-23.74z"/>
   <path class="fil0" d="M14320.71 13292.25c49.62,43.13 116.41,133.67 150.94,202.67 56.01,112.1 60.39,142.33 60.39,370.84 0,271.71 -30.23,377.34 -168.21,582.18l-64.68 97.03 64.68 -60.31c36.64,-34.54 90.54,-112.19 122.89,-174.69 181.1,-357.96 155.25,-705.07 -71.16,-946.54 -53.9,-58.28 -116.41,-114.3 -142.26,-127.26 -23.77,-12.89 -2.2,12.96 47.41,56.08z"/>
   <path class="fil0" d="M6372.88 12127.9c4.29,4.29 150.93,30.16 323.44,53.9 646.86,92.74 1063.01,269.53 1377.86,584.3 286.71,286.79 409.68,560.61 409.68,916.38 0,379.52 -86.25,595.14 -334.21,838.82 -81.96,81.95 -127.26,137.97 -101.41,122.88 99.2,-53.91 299.76,-280.31 375.22,-426.93 107.81,-204.84 146.65,-351.49 146.65,-556.33 0,-334.21 -110.01,-595.07 -355.78,-840.92 -260.94,-263.04 -636.08,-478.66 -994.05,-571.4 -250.15,-64.68 -881.85,-155.22 -847.4,-120.7z"/>
   <path class="fil0" d="M5825.22 12337.03c-127.26,21.56 -301.87,69 -383.82,103.52 -243.66,103.52 -502.4,325.55 -599.43,517.49 -60.4,116.41 -43.13,114.3 28.03,-6.49 81.96,-140.15 314.85,-325.61 517.49,-409.68 241.5,-101.32 687.81,-161.72 1196.7,-166.01 351.49,-2.17 338.52,-23.74 -34.52,-60.39 -306.16,-32.35 -446.31,-28.03 -724.45,21.56z"/>
   <path class="fil0" d="M6640.3 13100.31c-168.21,81.95 -288.98,187.65 -368.76,325.61 -64.69,110.01 -120.77,405.39 -103.5,534.76 36.64,267.35 185.46,545.55 370.85,694.28 101.41,81.96 97.03,71.18 -34.46,-84.05 -84.13,-99.23 -185.45,-293.29 -219.91,-424.84 -34.54,-131.48 -32.34,-442.02 6.4,-564.91 109.99,-353.59 379.52,-549.83 726.71,-528.27 90.54,4.3 142.27,2.18 118.59,-8.6 -23.76,-8.67 -110,-17.27 -194.06,-17.27 -129.37,-2.18 -172.49,8.6 -301.86,73.29z"/>
   <path class="fil0" d="M6700.61 13238.35c-107.82,77.58 -209.14,206.95 -269.54,340.7 -116.41,256.55 -6.4,713.67 222.12,922.8l71.16 64.68 -68.99 -90.54c-209.12,-271.64 -265.23,-618.83 -150.93,-929.28 47.42,-129.37 120.7,-222.11 241.48,-308.36 45.32,-34.52 75.46,-62.58 62.51,-62.58 -10.78,0 -60.32,28.06 -107.81,62.58z"/>
   <path class="fil0" d="M10521.48 14501.85c4.29,213.51 -2.2,508.89 -12.98,655.53 -10.78,146.65 -17.25,271.64 -10.78,276.01 4.31,6.41 45.32,-28.04 88.45,-75.46 112.1,-125.09 176.78,-209.22 142.26,-189.77 -23.67,15.07 -23.67,8.61 -2.11,-32.35 15.07,-28.04 45.24,-73.35 64.69,-99.2 36.63,-47.44 36.63,-56.02 -23.76,-204.84 -32.35,-86.25 -103.5,-284.62 -155.23,-437.73l-97.03 -280.31 6.49 388.12z"/>
   <path class="fil0" d="M10394.22 14797.31c-8.6,109.93 -6.49,247.97 6.47,308.28 10.78,58.28 17.27,112.19 10.78,116.48 -4.29,4.29 -30.14,-38.84 -56.08,-97.03 -38.75,-81.96 -47.42,-142.33 -47.42,-273.82 2.18,-92.74 -2.11,-163.92 -6.49,-159.6 -4.29,6.46 -17.18,66.86 -27.96,135.84 -19.45,116.41 -15.16,140.15 43.12,293.29 36.63,92.65 64.69,172.49 64.69,181.08 0,6.49 -34.55,-38.82 -77.67,-101.32 -133.66,-198.35 -105.61,-187.57 -498.11,-196.24 -191.88,-4.32 -338.5,0 -323.43,8.67 15.16,8.58 56.09,17.18 90.62,17.18 36.64,0 178.91,23.74 321.24,51.79 185.48,38.84 269.52,66.8 306.18,101.32 60.37,56.11 68.98,94.86 15.07,66.89 -53.9,-28.05 -396.72,-116.48 -407.5,-107.81 -4.29,6.4 81.96,36.63 191.88,71.09 185.46,58.28 444.2,194.05 418.35,219.99 -19.45,19.37 -1045.77,-334.21 -1138.5,-394.61 -163.89,-101.32 -109.99,-36.62 81.96,101.33 286.8,207.04 506.7,407.5 491.63,444.22 -8.66,23.68 0,30.15 25.86,21.57 137.97,-45.33 379.45,-105.71 470.07,-118.6l107.81 -15.15 -2.2 -86.25c-4.29,-222.03 -32.34,-776.24 -38.81,-782.65 -4.31,-2.2 -15.09,84.05 -21.56,194.06zm-506.71 504.52c166.01,47.43 178.96,51.72 163.89,64.68 -12.96,12.98 -295.38,-73.27 -295.38,-90.54 0,-12.96 2.12,-12.96 131.49,25.86z"/>
   <path class="fil0" d="M11541.31 15023.72c15.16,6.4 34.52,4.29 41.01,-2.2 8.6,-6.47 -4.29,-12.96 -28.06,-10.78 -23.73,0 -30.14,6.49 -12.95,12.98z"/>
   <path class="fil0" d="M10982.87 15049.57c-53.91,12.89 -409.68,325.55 -370.85,325.55 17.27,0 64.69,-36.64 312.65,-237.19 71.18,-58.19 99.14,-64.68 312.65,-81.87l232.9 -19.45 -215.63 0c-118.59,-2.12 -241.56,4.29 -271.72,12.96z"/>
   <path class="fil0" d="M11545.68 15116.37c-77.66,34.52 -338.59,127.26 -582.17,207.02 -243.68,79.77 -450.7,153.13 -463.59,163.91 -12.98,12.89 0,36.63 38.75,64.69 32.34,23.68 53.9,49.52 49.61,58.2 -10.78,17.26 125.06,196.17 368.73,487.25 97.03,114.31 213.45,267.42 258.75,336.4 45.24,69 88.36,125.08 97.03,127.2 8.6,0 -12.96,-60.32 -45.3,-135.79 -34.46,-73.35 -99.14,-247.96 -144.47,-390.31l-84.05 -254.43 -107.81 -49.62c-129.37,-58.19 -373.05,-204.84 -340.7,-204.84 10.78,0 77.58,19.45 148.76,43.13 275.99,97.02 263.03,97.02 442.02,-60.31 86.25,-75.48 172.5,-157.43 189.75,-176.88 19.38,-21.56 105.63,-92.65 194.06,-159.54 86.24,-66.86 148.75,-120.77 140.15,-118.59 -10.78,2.2 -81.94,30.17 -159.52,62.51zm-808.58 605.92l64.69 68.99 -64.69 -43.12c-34.54,-25.87 -84.13,-66.8 -107.81,-92.74l-43.12 -49.52 43.12 23.67c23.68,12.96 73.27,53.91 107.81,92.72z"/>
   <path class="fil0" d="M11082.1 15172.45c-94.92,30.17 -181.17,64.69 -191.95,75.47 -21.56,19.38 323.43,-81.94 375.23,-112.11 56.01,-32.33 -4.38,-19.44 -183.28,36.64z"/>
   <path class="fil0" d="M10176.49 15614.48c-105.7,58.22 -211.34,125.08 -232.89,146.64 -34.52,34.45 -172.51,476.48 -155.23,495.93 10.78,10.78 38.74,-51.79 125,-288.97l71.17 -194.06 181.16 -112.11c254.37,-157.43 250.08,-155.24 226.41,-155.24 -10.78,0 -107.81,47.43 -215.62,107.81z"/>
   <path class="fil0" d="M10402.89 15586.45c-174.7,256.63 -431.24,616.69 -528.27,737.4 -211.34,267.41 -204.85,276.02 58.19,84.13 133.66,-99.2 303.98,-219.91 379.45,-273.81 73.36,-51.8 144.53,-112.19 155.32,-135.86 17.18,-32.35 8.58,-463.59 -8.67,-487.33 -2.12,-2.11 -28.06,32.34 -56.02,75.47z"/>
   <path class="fil0" d="M10215.23 15702.93c-75.47,79.75 -301.86,394.51 -269.52,375.13 12.95,-6.46 75.46,-84.04 140.15,-170.3 64.69,-84.13 138.04,-178.99 163.89,-207.03 43.13,-49.6 53.91,-66.87 38.84,-66.87 -4.29,0 -36.64,32.34 -73.36,69.07z"/>
   <path class="fil0" d="M10512.81 15644.64c0,10.78 12.96,69.06 30.23,127.26 17.19,58.19 32.35,135.86 32.35,172.5 0,51.72 27.96,90.54 135.77,196.17 260.93,252.34 340.71,293.27 120.77,60.39 -181.08,-191.88 -209.13,-232.88 -232.87,-334.2 -25.87,-114.31 -84.07,-263.06 -86.25,-222.12z"/>
   <path class="fil0" d="M10642.19 15840.88c49.59,77.66 347.17,461.41 357.95,461.41 15.07,0 -15.07,-43.13 -146.65,-215.63 -135.84,-174.61 -256.54,-319.05 -211.3,-245.78z"/>
   <path class="fil0" d="M16114.66 4354.75c-49.59,38.83 -49.59,43.12 -12.96,81.95 19.45,23.68 36.72,60.31 36.72,81.88 0,43.12 -567.1,627.48 -629.68,649.03 -19.39,6.49 -58.2,0 -84.07,-12.95 -36.64,-21.57 -53.9,-17.19 -92.72,19.44l-47.43 43.13 377.34 385.94 377.33 388.12 97.03 -107.81c189.77,-211.33 187.59,-206.95 129.37,-267.35 -58.19,-62.57 -84.05,-64.69 -155.22,-8.67 -30.23,23.74 -75.47,43.13 -99.21,43.13 -56.01,0 -217.74,-142.27 -217.74,-191.89 2.12,-19.36 49.53,-86.25 107.82,-148.73l107.81 -116.48 116.39 120.77 114.3 118.59 56.02 -58.19c32.34,-34.54 58.28,-71.18 58.28,-84.14 0,-12.89 -49.61,-69 -112.19,-125.08l-109.92 -99.15 105.63 -107.81c159.61,-163.89 163.9,-163.89 278.2,-60.39 122.88,112.12 135.77,157.42 75.47,239.38l-47.51 64.69 53.91 53.9c62.57,62.49 69.06,60.31 226.4,-81.96l107.81 -97.02 -370.84 -381.63c-202.67,-211.33 -375.17,-381.72 -381.66,-381.72 -8.58,0 -36.63,19.45 -64.68,41.02z"/>
   <path class="fil0" d="M4117.53 4917.48c-105.71,105.69 -187.66,196.23 -183.29,200.54 6.41,4.29 38.75,28.04 73.27,53.91l62.51 47.41 49.62 -45.24 47.41 -43.12 34.52 47.42c40.95,60.39 170.32,364.37 159.54,377.33 -4.29,4.32 -105.63,-30.14 -224.23,-75.46 -204.83,-81.94 -219.9,-94.83 -200.52,-172.5 4.29,-17.25 -15.09,-36.64 -49.61,-45.3 -56.02,-17.19 -66.8,-8.61 -157.35,125.08 -53.9,79.76 -131.57,189.75 -172.49,245.85l-77.67 101.32 81.96 40.95 81.95 43.12 36.64 -49.61 38.84 -51.73 144.44 40.95c81.95,21.56 260.86,81.95 401.01,131.55 301.87,105.63 351.49,150.93 284.69,260.94 -38.83,66.8 -38.83,68.98 10.78,107.81 64.68,51.71 71.09,51.71 142.26,-43.12 34.52,-43.12 129.38,-155.31 209.13,-247.97 148.83,-168.2 148.83,-168.2 109.99,-215.62 -21.56,-25.94 -43.12,-51.79 -45.3,-56.1 -2.11,-4.29 -32.34,12.98 -64.69,36.65 -58.19,43.13 -60.3,43.13 -140.15,2.18 -101.32,-51.79 -112.1,-68.98 -286.71,-448.51l-142.36 -310.46 45.33 -47.5c23.67,-23.67 43.12,-53.9 43.12,-62.51 0,-25.85 -86.25,-142.32 -103.52,-140.15 -8.66,0 -101.32,86.25 -209.12,191.89z"/>
   <path class="fil0" d="M17149.64 5519.1c-51.7,34.46 -122.88,88.36 -159.51,116.41l-64.69 56.09 56.02 56.02c56.08,56.08 58.19,58.28 112.1,21.56 32.34,-19.39 66.86,-30.17 77.64,-23.68 23.77,15.07 219.94,269.53 211.34,273.82 -2.18,2.2 -243.68,8.6 -534.77,17.27l-530.45 12.9 -77.58 60.39c-43.12,32.35 -79.76,68.98 -79.76,79.76 0,10.78 53.91,79.85 120.71,155.31 64.68,75.47 198.35,254.37 295.38,396.7l178.98 263.06 170.39 -103.52c94.83,-53.9 172.5,-109.93 172.5,-120.7 0,-10.78 -21.57,-47.42 -47.51,-79.76 -40.94,-51.79 -53.9,-58.28 -92.65,-36.72 -90.62,47.5 -155.31,17.27 -271.73,-129.38 -62.48,-75.46 -112.1,-140.15 -109.98,-142.26 2.17,-2.18 237.18,-10.78 521.87,-19.45 474.36,-12.9 523.89,-19.39 601.54,-60.31 47.43,-25.94 86.25,-53.91 86.25,-60.4 2.2,-6.49 -97.03,-153.11 -215.63,-323.43 -120.77,-170.38 -237.18,-347.17 -258.74,-392.41 -21.56,-43.12 -43.13,-79.84 -51.71,-79.84 -6.49,0 -56.1,28.05 -110.01,62.57z"/>
   <path class="fil0" d="M3045.82 6413.93c-129.38,232.89 -140.16,273.82 -79.76,310.47 32.35,21.57 51.79,23.74 68.98,6.47 12.96,-12.96 30.23,-23.74 38.83,-23.74 8.67,0 159.61,155.32 336.39,342.88 286.8,303.98 321.26,351.49 314.77,405.4 -8.6,51.7 0,66.79 47.5,88.35 32.34,15.07 62.49,23.74 64.68,21.57 32.35,-43.13 183.28,-342.82 183.28,-362.27 0,-15.07 -21.56,-21.56 -58.28,-12.9 -60.31,12.9 -109.92,-17.26 -174.61,-99.2 -23.74,-30.16 -17.27,-58.22 49.61,-187.59l75.48 -153.11 66.79 34.52c58.2,28.05 64.69,43.12 56.08,94.85 -8.66,43.12 -4.29,64.69 19.39,73.35 66.87,25.86 94.92,10.79 138.04,-71.17 23.67,-47.42 90.54,-144.45 150.93,-215.62 60.31,-73.28 105.62,-140.16 99.15,-150.94 -6.49,-10.78 -40.95,-30.14 -77.58,-40.92 -49.61,-19.45 -66.89,-17.28 -79.84,6.4 -15.08,25.94 -51.74,21.56 -222.03,-19.39 -112.19,-28.03 -353.67,-86.24 -536.94,-131.55 -183.28,-43.12 -342.82,-84.07 -355.78,-88.36 -12.89,-4.29 -69,73.29 -125.08,172.5zm502.42 239.3c86.25,19.45 161.71,36.71 166,41 10.79,12.9 -101.32,228.52 -120.7,228.52 -8.67,0 -71.17,-68.97 -140.15,-150.93 -71.18,-88.36 -109.99,-150.94 -92.74,-150.94 17.27,0 101.34,15.16 187.59,32.35z"/>
   <path class="fil0" d="M17928.08 6713.62c-30.23,17.25 -51.8,38.81 -49.61,49.6 2.1,10.78 10.78,47.43 17.27,79.78 15.06,56.08 8.58,62.57 -142.36,131.55 -291.09,131.48 -664.11,293.2 -677.01,293.2 -8.66,0 -32.34,-21.56 -51.79,-45.24 -36.65,-45.3 -38.83,-45.3 -105.63,-10.78l-71.18 36.63 75.47 133.69c40.95,73.36 94.85,187.57 122.9,252.26 66.87,163.89 81.94,178.98 163.9,148.81 62.51,-19.44 66.8,-28.04 47.41,-75.46 -43.12,-118.6 -38.81,-120.77 560.62,-377.34 247.96,-105.7 280.31,-107.81 282.5,-21.56 0,19.38 15.08,23.68 49.54,15.07 25.94,-6.47 60.39,-12.96 75.46,-12.96 45.3,0 30.23,-68.97 -51.72,-237.18 -43.13,-88.37 -94.83,-209.14 -114.28,-267.35 -43.13,-122.88 -56.03,-131.55 -131.49,-92.72z"/>
   <path class="fil0" d="M18309.71 6767.52c-79.76,88.43 -19.45,263.04 88.36,263.04 94.91,0 155.31,-56.01 155.31,-142.27 0,-135.86 -159.6,-215.61 -243.67,-120.77z"/>
   <path class="fil0" d="M2565.05 7347.59c-19.45,68.98 -53.91,172.5 -75.46,230.69 -23.77,58.2 -43.13,112.1 -43.13,120.71 0,8.67 34.45,21.56 77.58,25.94 64.68,8.58 81.94,0 101.31,-41.01 10.79,-25.87 30.23,-43.13 41.02,-36.66 21.56,15.09 239.29,442.03 228.52,452.81 -4.3,2.2 -88.37,-19.37 -185.4,-51.71 -172.49,-56.1 -178.98,-60.4 -168.2,-116.48 10.78,-53.9 2.2,-64.68 -66.87,-92.74 -43.13,-17.18 -79.76,-30.16 -81.86,-27.96 -15.17,30.14 -161.72,532.56 -161.72,558.41 0,21.57 25.84,43.13 58.19,51.73 47.42,10.78 66.8,4.38 90.54,-30.16 15.09,-25.86 45.33,-45.31 64.69,-45.31 19.38,0 213.44,66.87 433.44,146.65l398.9 144.44 -6.49 92.74c-4.29,81.94 2.11,92.72 49.62,112.1 88.36,32.35 118.58,25.94 118.58,-27.96 0,-41.01 99.15,-394.61 140.16,-493.82 21.56,-53.9 -112.19,-77.58 -148.82,-25.87 -28.05,34.54 -32.34,36.65 -81.96,4.31 -27.96,-19.39 -105.63,-51.73 -174.61,-73.29 -66.86,-21.56 -122.88,-45.3 -122.88,-56.08 0,-10.79 25.85,-28.06 60.31,-40.95 73.35,-28.05 431.24,-105.69 491.64,-105.69 36.63,0 49.59,-17.19 60.37,-71.1 6.49,-36.72 36.66,-120.79 66.88,-183.28 53.91,-116.48 53.91,-155.31 2.12,-155.31 -15.09,0 -176.81,47.5 -362.27,107.81 -185.39,58.28 -347.1,107.82 -362.18,107.82 -25.94,0 -159.6,-273.83 -228.6,-467.89 -36.64,-105.63 -68.98,-133.68 -153.12,-135.86 -12.89,0 -40.94,56.09 -60.3,122.97z"/>
   <path class="fil0" d="M2435.68 8971.16c-140.15,56.08 -310.54,204.84 -383.83,338.58 -71.18,133.67 -122.88,345 -122.88,515.3 0,110.01 10.78,148.75 77.58,258.75 41.01,69 107.81,161.71 144.44,202.66 135.86,148.82 198.44,222.11 176.88,211.33 -10.79,-6.49 -88.45,-38.84 -172.5,-71.18 -81.96,-32.34 -176.88,-77.58 -209.22,-99.14 -30.16,-23.74 -62.51,-41.01 -71.09,-41.01 -17.27,0 4.29,299.75 34.46,483.03 43.12,247.97 174.67,435.54 416.15,599.45l131.57 90.54 -148.82 25.85c-159.54,30.17 -269.53,99.23 -336.33,209.16 -47.5,77.64 -43.12,92.71 40.93,112.1 34.54,6.49 112.12,56.08 174.69,109.99 181.08,155.25 293.2,224.22 463.59,286.8l159.51 58.19 -103.49 36.66c-213.45,75.47 -301.87,204.84 -303.98,444.2 0,196.17 36.63,299.69 150.93,411.8 99.14,99.2 213.42,150.93 338.5,150.93 99.15,0 284.6,-103.44 349.29,-196.18 58.22,-86.24 107.81,-116.47 66.88,-43.12 -45.32,84.07 -25.94,355.78 36.64,523.98 49.61,131.49 86.25,185.39 228.51,334.22 94.92,99.14 166.09,178.9 161.72,178.9 -6.41,0 -103.44,-53.91 -213.44,-118.59 -112.11,-64.69 -207.02,-107.82 -211.31,-94.86 -17.27,51.73 71.15,215.62 157.4,295.41 49.62,45.3 163.91,125.06 252.27,176.78 191.96,112.19 209.14,131.55 495.93,511.09 508.89,672.72 1621.46,1675.36 1761.61,1586.93 21.56,-10.78 38.84,-34.46 41.01,-51.73 2.12,-17.26 -118.59,-125.08 -269.52,-239.35 -502.42,-383.83 -920.69,-810.7 -1339.04,-1367.03 -297.58,-398.9 -338.52,-478.65 -379.45,-763.34 -36.71,-260.86 -53.9,-325.55 -114.29,-442.02 -53.91,-103.44 -166.01,-239.3 -144.45,-172.5 56.02,161.71 75.46,284.68 73.26,495.93 0,228.58 0,235.07 -34.52,174.67 -34.45,-66.86 -308.27,-746.07 -308.27,-767.63 0,-8.6 43.12,28.06 97.03,79.84 53.91,51.71 107.81,92.66 118.6,92.66 10.77,0 -4.39,-56.02 -34.55,-125 -105.61,-235.07 -131.55,-295.47 -146.62,-355.78 -12.89,-56.1 -10.78,-58.27 45.3,-43.12 166,45.24 347.11,-23.76 454.92,-174.69 79.85,-112.1 94.91,-161.72 92.74,-306.16 -2.12,-291.09 -271.64,-508.89 -582.18,-470.08 -92.74,10.78 -114.3,8.6 -105.63,-15.07 8.6,-28.06 40.94,-51.8 215.62,-159.61 157.43,-97.03 196.17,-297.49 94.85,-472.19 -62.51,-107.81 -120.71,-155.22 -228.51,-185.45 -64.69,-19.39 -215.63,-2.12 -310.54,34.52 -30.17,10.78 -23.68,-6.47 28.03,-77.65 36.65,-51.73 86.25,-157.34 110,-235 21.57,-77.64 60.32,-211.31 84.06,-293.27 23.76,-84.07 64.68,-172.49 88.45,-200.46l45.23 -47.51 -60.39 -25.84c-32.35,-15.1 -133.67,-25.88 -222.03,-25.88 -174.7,0 -327.81,60.39 -424.84,163.91 -49.53,51.71 -157.34,267.33 -157.34,314.77 0,60.37 -41,-2.12 -107.8,-166.03 -77.68,-194.06 -110.01,-442.02 -81.97,-625.3 10.79,-64.69 23.68,-125.06 30.17,-135.85 6.47,-10.77 41.02,19.45 75.47,66.87 103.5,144.45 245.85,194.06 439.91,153.05 133.66,-27.97 273.82,-122.89 349.28,-235.01 38.83,-58.2 49.62,-103.49 49.62,-219.91 0,-288.97 -131.57,-504.6 -381.72,-627.48 -122.87,-60.4 -168.12,-71.18 -338.5,-75.47 -155.25,-6.49 -217.74,2.18 -303.98,36.64zm539.05 213.51c135.78,60.39 200.46,118.59 250.07,228.51 103.51,224.29 17.26,442.03 -202.65,511.09 -148.83,45.23 -299.77,-71.18 -265.24,-209.22 12.98,-49.53 17.27,-51.73 47.44,-21.56 112.09,109.99 241.47,-88.37 146.62,-224.23 -45.31,-62.49 -155.23,-109.98 -263.04,-109.98 -207.02,0 -401.08,282.48 -433.42,629.67l-15.09 178.9 -17.25 -105.63c-56.02,-325.61 97.03,-689.99 336.38,-808.58 51.74,-23.74 79.77,-45.3 64.7,-45.3 -51.8,0 -187.57,81.96 -256.64,155.31 -101.31,105.61 -181.1,297.5 -198.34,476.48 -15.1,148.82 -17.28,150.94 -32.35,73.36 -21.56,-101.41 -4.31,-271.73 43.13,-409.69 38.81,-116.47 189.74,-293.28 293.26,-347.19 99.14,-51.7 357.88,-36.63 502.42,28.06zm308.27 1427.39c-17.18,150.93 -79.75,304.07 -163.82,407.5 -41.02,49.61 -38.84,43.12 8.59,-105.63 28.04,-86.25 51.8,-170.3 49.6,-183.28 -2.18,-43.13 -107.81,211.33 -129.37,314.85 -12.96,58.2 -30.15,103.43 -38.81,103.43 -32.35,0 15.06,-295.38 60.37,-383.74 25.88,-51.79 43.12,-99.22 36.66,-105.7 -28.06,-28.05 -137.98,260.93 -153.05,398.9 -12.98,122.89 -19.45,135.84 -36.73,90.54 -27.95,-71.09 -4.28,-265.15 47.51,-381.63 56.02,-127.19 34.46,-116.41 -32.34,17.25 -66.89,129.38 -90.63,340.71 -58.29,508.91 28.06,153.05 -8.6,125 -40.94,-32.34 -51.71,-250.16 4.31,-523.98 137.97,-668.43 66.87,-71.17 185.46,-131.57 265.24,-133.75l64.69 0 -17.28 153.12zm-1056.55 6.49c224.29,114.3 392.5,316.94 467.98,564.9 40.92,137.98 38.74,166.03 -6.5,77.67 -43.13,-79.84 -327.72,-398.9 -342.88,-383.83 -6.4,4.29 23.74,60.4 62.57,125.09 109.92,172.49 116.42,213.42 12.89,92.65 -51.72,-60.31 -129.37,-146.56 -174.6,-194.06l-84.14 -86.25 71.18 101.41c36.63,56.02 135.84,176.78 217.79,265.15 84.08,88.42 144.46,161.71 135.88,161.71 -8.68,0 -79.85,-43.12 -159.61,-92.65 -239.3,-157.43 -368.67,-355.78 -368.67,-575.77 0,-71.09 4.28,-129.37 10.78,-129.37 6.4,0 77.58,32.34 157.33,73.35zm1328.26 756.79c90.56,60.39 129.37,220 73.29,297.58 -27.97,34.52 -209.14,109.98 -226.4,92.71 -6.41,-4.29 15.16,-25.85 45.3,-45.3 99.22,-64.69 53.9,-172.5 -66.87,-157.34 -47.41,4.29 -71.09,30.14 -120.7,127.17 -88.43,172.5 -86.25,418.29 4.29,709.38 36.66,112.18 64.69,185.45 64.69,161.72 2.2,-66.8 105.63,-252.26 170.32,-306.17 224.29,-189.76 541.22,51.8 452.8,340.69 -36.64,125.07 -144.45,235 -228.51,235 -88.43,0 -172.51,-40.94 -187.58,-88.36 -19.45,-56.09 10.78,-146.64 53.91,-170.38 45.24,-23.68 64.69,-8.61 64.69,58.28 0,58.2 34.46,64.69 90.53,12.89 58.2,-51.72 49.62,-146.64 -17.26,-198.37 -32.35,-25.86 -71.16,-45.3 -88.43,-45.3 -62.51,0 -200.47,88.43 -232.81,150.93 -36.72,71.18 -43.12,213.51 -10.78,321.32 10.78,40.95 17.19,77.58 15.07,79.76 -2.17,4.32 -49.61,-66.87 -101.32,-157.4 -150.93,-252.28 -293.29,-323.43 -426.95,-211.33 -127.26,105.7 -101.32,291.09 38.84,291.09 34.46,0 68.97,-10.78 75.46,-21.57 6.4,-12.89 -2.19,-21.56 -21.56,-21.56 -19.44,0 -28.06,-10.78 -21.56,-21.56 6.4,-12.89 36.63,-21.57 64.68,-21.57 103.44,0 157.34,172.51 86.25,273.91 -19.45,27.96 -73.35,58.2 -120.78,71.09 -288.89,77.64 -523.96,-271.64 -388.12,-575.69 49.6,-105.63 107.81,-148.75 232.89,-168.2 140.15,-21.56 219.91,6.48 340.7,120.77l109.92 105.63 -81.95 -243.59c-90.54,-256.63 -146.56,-504.59 -146.56,-640.46 0,-157.34 107.81,-332.03 237.18,-385.94 66.8,-28.03 202.64,-12.96 267.33,30.17zm-974.59 284.68c56.02,19.36 129.37,58.2 161.71,86.25 60.4,49.53 58.21,49.53 -45.29,-4.38 -58.22,-30.16 -120.71,-53.9 -140.16,-53.9 -19.38,2.17 19.45,30.23 84.14,62.57 107.81,56.02 366.55,297.58 366.55,340.71 0,10.78 -51.78,-30.24 -116.48,-90.63 -112.12,-105.63 -370.87,-263.04 -394.6,-241.48 -6.4,6.47 25.93,30.23 73.35,53.91 94.86,49.59 288.92,217.8 250.07,219.91 -27.95,0 -200.46,-97.03 -347.1,-198.35 -51.8,-34.45 -97.03,-60.39 -101.32,-56.02 -4.38,4.29 60.3,53.91 142.27,112.1 84.14,56.02 146.62,107.82 142.32,114.31 -38.83,38.74 -340.69,-129.38 -498.1,-273.91 -10.78,-10.78 12.96,-38.75 53.91,-62.51 90.54,-56.08 230.69,-58.19 368.73,-8.58z"/>
   <path class="fil0" d="M2726.77 9208.34c17.18,10.78 47.41,21.56 66.8,21.56 73.35,0 237.18,129.38 278.19,222.12 60.31,129.36 53.91,200.52 -19.45,275.99 -49.62,49.62 -81.96,62.51 -157.42,62.51 -66.8,0 -84.08,6.49 -60.31,21.56 17.18,10.78 71.08,21.56 120.71,21.56 97.02,0 187.56,-73.29 213.5,-174.61 36.63,-146.64 -94.92,-338.5 -291.09,-426.95 -103.52,-47.41 -213.5,-64.69 -150.93,-23.74z"/>
   <path class="fil0" d="M3280.89 11493.93c-51.79,41.01 -122.88,146.64 -122.88,183.28 0,8.66 32.34,-27.97 71.09,-79.76 60.4,-79.78 84.13,-92.74 159.6,-99.14 68.98,-4.38 101.32,4.29 133.67,36.63 49.61,49.61 60.39,32.34 17.27,-28.05 -15.07,-19.37 -66.87,-43.13 -112.1,-49.6 -66.89,-8.6 -99.23,0 -146.65,36.64z"/>
   <path class="fil0" d="M3574.09 12291.73c-73.29,30.22 -60.31,45.3 15.16,17.27 36.64,-10.78 92.65,-15.09 124.99,-8.6 43.13,10.78 49.62,8.6 25.94,-8.67 -38.83,-25.85 -101.4,-25.85 -166.09,0z"/>
   <path class="fil0" d="M2735.35 12561.26c-118.6,155.3 -77.65,364.44 86.25,448.51 84.06,43.12 146.64,38.81 217.82,-17.27 36.63,-27.97 30.14,-27.97 -36.73,2.18 -75.47,34.54 -79.75,34.54 -153.05,-10.78 -84.13,-51.71 -144.44,-159.52 -144.44,-254.44 0,-32.34 23.68,-101.34 53.91,-153.05 62.49,-110.01 53.9,-116.47 -23.76,-15.15z"/>
   <path class="fil0" d="M17917.3 8979.83c-437.73,183.27 -584.38,782.72 -250.17,1013.41 112.12,77.58 191.89,103.52 325.64,105.64 153.05,2.17 267.32,-51.73 340.61,-163.83l56.09 -86.25 32.34 73.27c47.43,107.81 56.11,392.43 15.09,558.44 -30.17,138.04 -137.98,403.27 -140.15,351.48 -4.31,-69 -99.15,-276.02 -159.54,-342.82 -142.33,-163.89 -368.73,-215.61 -618.81,-142.32 -129.37,36.63 -135.86,43.12 -90.63,66.86 66.87,34.46 125.09,159.53 163.9,355.77 43.12,204.84 75.46,282.42 148.75,370.85 69.06,81.96 73.35,105.63 17.28,73.29 -60.4,-32.34 -276.02,-25.85 -342.82,8.67 -66.87,36.63 -202.73,174.61 -239.36,243.67 -34.46,68.98 -30.17,125 23.74,234.99 43.12,94.85 228.51,267.35 282.42,267.35 15.16,0 2.18,-21.57 -27.97,-45.24l-53.9 -43.13 66.8 32.35c58.19,28.05 94.91,71.17 94.91,114.29 0,6.41 -58.28,6.41 -129.37,0 -332.1,-32.33 -582.18,178.91 -582.18,495.93 0,114.22 97.03,299.68 200.46,381.63 75.47,60.4 97.03,66.81 243.68,66.81l159.6 0 -12.98 64.68c-19.36,90.63 -88.43,263.12 -148.73,370.93 -28.06,51.71 -41.02,92.66 -30.23,92.66 10.78,0 68.97,-45.24 127.26,-99.15 60.3,-56.08 107.81,-88.42 107.81,-75.46 0,32.34 -247.97,631.79 -304.07,735.22l-43.13 75.47 8.61 -340.62c6.49,-297.58 2.17,-336.41 -23.68,-301.87 -92.74,118.59 -140.15,286.71 -187.57,664.05 -19.45,144.53 -53.9,224.29 -185.48,416.17 -392.41,573.58 -871.07,1082.4 -1464.03,1556.77 -327.81,263.12 -310.53,243.67 -282.5,299.76 15.09,23.67 36.66,45.23 51.72,45.23 41.02,-2.11 375.23,-247.96 638.27,-469.99 288.91,-247.96 763.28,-730.99 944.44,-963.89 459.3,-590.78 454.92,-586.47 597.25,-666.25 189.77,-105.61 263.06,-172.5 336.42,-301.86 107.81,-185.46 90.53,-200.54 -101.41,-97.03 -92.65,49.61 -155.23,75.46 -137.98,56.1 34.54,-43.13 4.31,-49.62 -40.92,-10.78 -17.27,15.07 43.12,-51.8 135.77,-146.65 185.46,-196.24 269.53,-351.48 288.98,-534.76 6.49,-64.69 2.11,-146.62 -10.78,-185.45l-23.74 -66.8 94.92 84.06c129.37,114.29 258.74,148.83 418.25,116.48 148.77,-32.34 252.28,-112.19 332.04,-258.74 155.31,-284.69 53.91,-597.34 -232.81,-728.82 -86.24,-38.84 -97.03,-49.62 -53.9,-49.62 94.83,-2.18 351.4,-142.33 517.5,-282.48 88.35,-73.29 194.05,-148.76 232.8,-166.01l71.17 -30.17 -45.23 -62.57c-92.74,-129.37 -252.35,-219.91 -431.25,-241.47 -47.49,-6.5 -43.12,-12.9 60.31,-79.79 215.62,-137.95 381.72,-388.11 433.42,-649.03 36.66,-198.35 53.91,-452.81 28.06,-452.81 -12.96,0 -30.23,10.78 -36.64,21.56 -19.45,30.23 -157.42,99.21 -321.32,159.61l-140.15 49.61 127.26 -140.16c271.64,-295.46 323.43,-416.17 284.6,-674.92 -32.35,-230.69 -140.16,-454.98 -271.71,-575.68 -153.04,-142.35 -267.35,-183.28 -508.82,-191.95 -178.99,-6.49 -220,-2.11 -334.21,45.31zm558.42 172.49c209.15,86.25 338.52,306.16 353.59,595.08 4.38,101.4 0,204.84 -10.78,230.78 -12.89,32.34 -17.19,4.29 -19.39,-99.23 0,-163.9 -47.41,-308.34 -142.33,-448.5 -62.51,-94.85 -196.17,-200.55 -250.08,-200.55 -17.26,0 17.28,32.35 73.29,69.07 191.96,129.37 299.76,433.35 258.75,717.95 -21.56,135.87 -36.66,112.19 -43.12,-66.8 -6.49,-235.07 -133.69,-467.87 -299.7,-556.32 -194.06,-105.61 -474.36,75.46 -413.96,267.35 19.36,58.28 109.92,79.84 159.51,34.52 47.44,-43.13 66.88,-25.86 66.88,64.68 0,146.64 -222.1,213.44 -383.82,116.41 -92.74,-56.01 -163.89,-213.44 -148.82,-316.93 32.34,-189.77 157.42,-345 332.09,-407.51 107.82,-36.64 377.35,-38.83 467.89,0zm-633.89 1328.19c239.29,66.86 381.63,448.51 308.28,823.74 -15.08,79.75 -19.39,58.19 -27.97,-144.54 -8.67,-198.35 -21.57,-258.74 -71.18,-364.38 -32.34,-68.97 -62.57,-122.88 -68.97,-116.39 -4.39,4.29 12.89,51.71 38.74,105.61 51.79,101.35 66.87,334.22 28.06,418.29 -17.28,32.34 -23.68,4.38 -34.46,-118.59 -8.67,-120.71 -30.24,-200.47 -81.96,-308.28 -38.83,-79.84 -75.47,-144.53 -79.76,-144.53 -6.49,0 12.9,60.4 40.93,133.75 58.22,155.23 101.34,444.14 49.61,329.84 -17.27,-36.64 -51.79,-133.67 -79.76,-215.62 -28.05,-84.08 -53.91,-137.98 -58.28,-125 -6.4,15.07 10.78,81.88 34.52,146.56 62.51,163.9 56.11,170.38 -30.15,32.34 -47.49,-77.58 -81.95,-166.01 -97.03,-258.74 -12.97,-77.59 -28.04,-157.34 -34.53,-178.91 -12.96,-43.12 43.12,-49.61 163.91,-15.15zm1097.47 202.72c-30.14,239.3 -135.84,407.51 -353.58,560.62 -116.48,81.96 -133.74,88.36 -129.37,47.41 8.58,-64.68 153.05,-312.65 232.81,-398.9 56.08,-58.19 58.28,-66.86 19.45,-47.41 -92.74,49.61 -334.21,293.2 -396.79,405.39 -36.64,62.49 -66.8,114.21 -71.09,114.21 -4.38,0 6.41,-53.9 21.56,-120.7 32.34,-142.33 187.57,-381.63 321.24,-495.93 71.17,-62.57 360.08,-230.69 370.86,-215.62 2.18,0 -4.31,68.97 -15.09,150.93zm-1157.86 739.61c77.58,75.47 146.64,258.74 146.64,396.7 0,92.74 -53.91,291.09 -207.04,752.5 -6.47,17.26 21.56,2.17 60.4,-34.46 122.88,-116.48 170.32,-138.04 293.19,-138.04 135.87,0 211.34,34.52 306.26,142.33 66.8,75.47 68.97,86.25 60.3,224.23 -6.4,118.58 -19.38,159.6 -68.98,226.4 -118.58,155.31 -321.25,198.43 -450.62,97.02 -90.54,-73.29 -90.54,-228.51 2.11,-278.12 34.52,-17.25 53.9,-12.96 99.21,30.16 69,62.57 142.35,47.51 172.5,-36.63 45.32,-127.2 -62.49,-276.02 -196.24,-276.02 -71.09,0 -99.14,15.16 -172.5,90.62 -47.42,51.71 -122.88,146.57 -168.12,211.25 -43.13,64.69 -73.36,99.21 -64.68,75.47 8.58,-23.67 21.55,-101.32 25.85,-172.5 10.78,-157.34 -34.53,-243.58 -155.23,-299.69 -142.35,-68.98 -269.52,-12.96 -269.52,118.59 0,60.39 58.19,127.2 109.92,127.2 51.79,0 75.47,-43.13 38.81,-66.81 -23.74,-12.95 -23.74,-23.74 -4.29,-43.12 64.69,-64.68 174.61,155.23 116.42,226.41 -45.24,53.9 -148.76,58.19 -239.3,12.89 -168.21,-86.25 -243.68,-295.38 -161.72,-452.81 45.24,-86.24 176.79,-172.49 265.15,-172.49 105.7,0 258.75,150.93 293.27,291.09l28.05 105.69 56.02 -150.93c118.59,-312.65 133.75,-532.56 47.5,-715.84 -75.47,-163.92 -207.04,-209.22 -230.78,-81.96 -8.6,45.24 2.18,64.69 56.08,99.14l66.89 45.3 -86.25 -15.07c-155.31,-25.85 -226.4,-84.13 -226.4,-187.57 0,-90.62 75.47,-181.16 181.08,-217.82 103.52,-36.63 189.77,-15.07 276.02,66.89zm940.06 211.24c109.99,34.52 163.89,75.47 116.48,92.74 -15.07,4.29 -105.7,71.16 -200.55,146.62 -155.22,122.91 -185.45,137.98 -258.74,133.69 -45.31,-4.31 -84.06,-8.6 -84.06,-10.78 0,-2.11 58.2,-38.84 129.38,-81.96 71.09,-43.12 129.37,-84.07 129.37,-90.54 0,-10.78 -241.56,118.59 -338.59,183.28 -27.96,17.25 -49.53,21.56 -47.42,12.96 2.18,-32.35 142.34,-140.16 284.61,-217.8 73.35,-40.95 109.98,-66.8 79.84,-58.22 -92.74,25.88 -265.24,118.59 -383.83,207.04 -64.68,47.42 -120.77,79.76 -129.37,73.27 -25.85,-28.03 206.95,-222.09 338.5,-282.49 75.47,-34.45 125.09,-66.8 112.12,-71.09 -10.78,-4.37 -66.8,12.9 -120.7,36.64 -110.01,47.41 -112.19,21.56 -4.37,-34.52 150.93,-77.58 222.1,-84.08 377.33,-38.84z"/>
   <path class="fil0" d="M18119.94 9208.34c-88.43,25.94 -241.47,146.65 -282.49,222.11 -56.01,99.21 -51.72,256.64 10.78,327.73 53.91,64.68 200.56,94.91 265.24,56.08 34.52,-19.37 25.85,-21.56 -47.44,-23.74 -247.96,-2.11 -295.38,-263.04 -79.75,-450.63 53.9,-49.59 135.86,-99.21 181.09,-109.99 47.42,-12.89 84.14,-27.96 84.14,-32.34 0,-15.07 -66.88,-10.78 -131.57,10.78z"/>
   <path class="fil0" d="M18788.36 10888.07c-17.25,23.68 -92.71,109.93 -168.18,194.06 -75.46,84.07 -120.71,148.76 -103.52,140.16 28.06,-10.78 99.21,-86.25 291.09,-316.94 19.45,-19.45 28.05,-41.02 21.56,-47.51 -6.4,-6.4 -23.67,6.49 -40.95,30.23z"/>
   <path class="fil0" d="M17466.61 11496.11c-30.17,23.76 -56.02,58.21 -56.02,77.66 0,23.68 12.89,17.19 43.12,-21.56 92.65,-118.59 241.48,-84.13 321.23,75.47 23.77,51.7 45.33,77.58 45.33,60.31 0,-40.95 -79.85,-174.61 -127.26,-209.13 -53.91,-40.95 -161.72,-32.35 -226.4,17.25z"/>
   <path class="fil0" d="M17235.89 12306.89c-28.03,32.34 -25.85,32.34 21.56,8.58 47.44,-25.85 112.13,-23.74 207.04,10.78l43.13 15.09 -43.13 -34.45c-58.28,-47.51 -191.94,-47.51 -228.6,0z"/>
   <path class="fil0" d="M17091.45 12550.47c0,41.02 4.29,58.28 10.78,36.73 4.29,-19.45 4.29,-53.91 0,-75.48 -6.49,-19.45 -10.78,-2.19 -10.78,38.75z"/>
   <path class="fil0" d="M18232.06 12561.26c0,10.78 12.96,45.3 30.23,75.46 17.18,30.23 30.15,81.96 32.34,114.3 0,75.47 -73.35,219.92 -118.58,239.37 -64.7,23.67 -146.65,12.89 -187.66,-23.74 -21.56,-19.39 -38.75,-23.68 -38.75,-12.9 0,36.64 56.02,73.27 135.78,86.25 60.4,8.58 86.24,0 150.93,-56.1 84.14,-73.28 112.19,-159.52 92.74,-267.34 -12.89,-64.68 -99.14,-200.55 -97.03,-155.3z"/>
   <path class="fil0" d="M17408.39 13949.9c-28.03,23.67 -40.93,43.12 -30.15,43.12 30.15,0 107.82,-60.39 92.66,-73.35 -6.41,-6.4 -34.46,6.49 -62.51,30.23z"/>
   <path class="fil0" d="M3697.06 14969.81c-30.23,64.68 -41.01,71.09 -125.08,68.97l-92.74 -2.17 58.22 60.37 56.08 60.4 -45.3 62.51c-23.67,36.63 -45.24,68.98 -45.24,73.35 0,4.29 38.75,4.29 86.25,0 77.58,-8.66 86.25,-4.37 114.22,62.49l28.05 71.17 30.23 -71.17c27.97,-68.98 32.34,-71.15 120.7,-60.37l94.92 8.67 -43.13 -58.29c-53.9,-77.58 -53.9,-103.43 4.29,-166l47.42 -51.73 -94.83 6.48c-88.45,6.41 -97.03,2.12 -129.37,-64.68l-34.54 -71.18 -30.15 71.18z"/>
   <path class="fil0" d="M17207.86 14974.1c-32.34,79.76 -34.46,81.96 -122.9,66.8l-88.43 -15.07 49.61 66.86c47.42,64.69 47.42,68.98 12.96,129.38 -47.41,81.96 -47.41,81.96 36.64,71.17 66.88,-8.66 77.66,0 112.12,62.49l36.63 73.29 34.52 -73.29c30.17,-66.86 38.84,-68.98 114.31,-58.2l81.95 12.9 -43.12 -68.98c-53.91,-88.36 -53.91,-86.25 12.89,-153.05l56.09 -56.1 -92.74 4.31c-86.25,4.29 -94.83,0 -129.38,-71.18l-36.63 -75.46 -34.52 84.13z"/>
   <path class="fil0" d="M6806.3 16293.69c-75.46,51.72 -49.62,176.8 56.02,260.94 94.91,77.58 263.13,-15.16 263.13,-142.36 0,-127.17 -200.55,-202.64 -319.15,-118.58z"/>
   <path class="fil0" d="M14208.61 16425.25c-94.92,53.91 -329.92,178.91 -521.87,278.11l-349.29 183.29 88.43 166.02c122.88,228.58 127.2,235.07 200.55,172.5 56.02,-49.62 58.2,-53.91 32.34,-142.27 -30.23,-99.23 -21.56,-120.79 81.87,-183.28l64.69 -36.72 127.26 241.56c68.98,133.67 166.01,329.84 215.62,437.65l90.54 194.06 -56.08 45.3c-51.73,40.95 -53.91,47.44 -25.85,101.34l32.34 58.2 116.48 -77.58c64.69,-41.01 194.06,-114.3 286.71,-161.72 170.38,-86.25 202.73,-133.66 133.75,-191.94 -25.94,-21.57 -45.32,-21.57 -88.45,-2.12 -71.15,32.35 -64.68,36.64 -122.88,-68.97 -185.46,-329.93 -403.19,-724.54 -403.19,-733.12 0,-6.49 45.24,-28.05 99.14,-49.61l101.32 -38.84 60.4 69c60.37,68.98 64.68,68.98 138.04,38.82l73.27 -32.34 -81.94 -176.8c-45.24,-99.2 -90.56,-181.16 -101.34,-183.27 -10.78,-4.29 -97.03,38.83 -191.86,92.73z"/>
   <path class="fil0" d="M6489.36 16604.16c-19.45,38.83 -32.35,71.17 -28.06,75.46 4.3,2.18 28.06,17.28 56.03,30.23 25.94,12.9 47.5,40.95 47.5,60.4 0,34.46 -347.2,724.45 -392.5,778.35 -17.18,19.45 -49.53,23.74 -94.85,17.25 -68.98,-15.07 -94.83,8.6 -94.83,84.07 0,15.16 120.71,92.74 269.53,172.5 282.41,148.82 314.76,155.31 340.61,51.79 8.67,-28.05 -2.11,-51.79 -30.17,-68.98 -21.55,-12.98 -40.92,-41.01 -38.81,-58.28 0,-17.18 90.55,-211.24 200.54,-431.24l200.55 -398.9 75.46 6.49c62.51,4.29 79.76,-4.32 101.32,-51.73 12.98,-32.34 17.27,-64.69 8.6,-75.47 -19.38,-17.27 -489.44,-230.69 -549.83,-250.14 -23.67,-6.49 -47.41,10.78 -71.09,58.2z"/>
   <path class="fil0" d="M12328.33 16819.78c-64.69,25.94 -120.71,118.59 -103.44,170.38 19.36,64.69 116.39,131.49 187.57,131.49 77.58,0 168.2,-86.25 168.2,-161.72 0,-30.16 -23.75,-79.76 -53.9,-107.81 -53.91,-56.02 -116.48,-64.69 -198.43,-32.34z"/>
   <path class="fil0" d="M7705.42 17136.81c-10.78,34.45 -30.14,86.25 -43.12,116.39 -12.96,32.34 -19.37,88.45 -15.08,129.37 4.29,53.91 19.39,73.29 66.8,90.56 53.91,17.25 69.07,10.78 129.38,-56.02l69.06 -75.46 170.3 36.63 170.32 34.46 -433.36 396.78c-239.36,217.74 -435.53,407.5 -435.53,422.58 0,15.15 -4.38,43.12 -10.78,58.28 -8.67,21.57 32.34,40.93 155.22,68.98 92.74,21.55 342.82,94.85 554.13,163.83 213.44,71.18 394.61,122.97 405.39,116.47 8.6,-6.48 17.27,-43.12 19.38,-79.75 0,-38.84 17.25,-133.75 38.82,-213.51l36.65 -142.27 -62.51 -12.98c-101.32,-21.56 -109.99,-17.25 -153.11,62.51 -28.05,51.79 -56.02,75.47 -90.56,75.47 -56.08,0 -334.22,-81.88 -360.07,-107.81 -10.78,-8.6 51.73,-73.29 140.16,-144.45 86.24,-71.18 245.78,-209.15 351.48,-306.18 107.81,-97.03 230.69,-198.35 273.82,-224.2 101.32,-58.29 116.41,-155.31 28.05,-187.66 -64.68,-25.85 -946.62,-280.31 -966.01,-280.31 -8.66,0 -25.85,25.94 -38.83,58.29z"/>
   <path class="fil0" d="M12666.91 17156.17c-43.12,17.27 -183.28,51.73 -312.64,79.78l-237.19 47.41 0 64.69c0,58.28 6.4,64.69 79.76,71.18 90.53,8.67 84.07,-12.9 239.3,564.9 116.48,424.85 112.19,388.12 36.71,416.18 -71.17,28.03 -73.35,32.34 -45.32,107.8l21.57 53.91 189.76 -58.22c103.52,-34.52 241.47,-73.27 303.98,-86.24 64.69,-17.25 112.19,-40.93 112.19,-56.09 0,-64.69 -28.05,-97.03 -86.25,-97.03 -75.46,0 -81.95,-10.78 -129.37,-191.88 -21.56,-77.65 -73.35,-273.82 -116.47,-431.24 -43.13,-159.52 -75.48,-301.87 -69,-316.94 4.31,-12.96 38.83,-30.23 75.46,-36.64 73.29,-15.16 88.45,-64.68 40.95,-127.26 -25.86,-32.34 -36.64,-32.34 -103.44,-4.31z"/>
   <path class="fil0" d="M9475.72 17561.56c0,64.69 8.58,77.58 45.24,77.58 23.74,0 60.37,8.67 81.93,21.56 36.65,19.45 38.84,51.79 30.16,424.84 -10.77,536.86 -12.89,541.17 -99.14,549.83 -60.4,6.41 -68.98,15.08 -75.46,75.48 -8.67,88.35 21.56,97.03 316.94,86.24 237.18,-10.78 271.72,-25.94 245.78,-118.59 -6.4,-32.34 -30.16,-47.5 -79.76,-51.79l-66.79 -6.49 0 -392.41c0,-217.74 6.4,-394.61 17.18,-394.61 8.67,0 15.16,17.27 15.16,36.72 2.12,21.56 66.8,213.42 148.73,426.86l144.47 388.12 150.94 4.38 148.82 6.4 140.15 -420.46c75.47,-230.69 144.45,-420.46 150.94,-420.46 6.4,0 10.78,36.72 10.78,79.85 2.11,45.23 6.4,222.02 10.78,394.52l8.58 312.65 -58.2 6.49c-51.79,6.47 -58.19,17.25 -58.19,84.13 0,73.28 2.11,75.48 66.8,62.49 36.63,-6.46 183.28,-12.96 323.43,-12.96 239.36,0 256.63,-2.12 256.63,-40.95 0,-77.64 -25.94,-109.98 -86.24,-109.98 -34.55,0 -69.07,-8.6 -75.47,-21.57 -6.49,-10.78 -19.45,-228.52 -25.94,-485.14l-12.9 -463.59 66.8 -12.89c58.29,-10.78 69.07,-23.74 69.07,-75.47 0,-32.34 -8.67,-64.69 -17.27,-71.18 -10.79,-6.46 -148.83,-6.46 -310.54,2.2l-288.91 12.9 -71.16 207.02c-38.83,114.3 -97.03,265.23 -129.37,336.32l-60.4 129.37 -34.45 -97.03c-56.09,-157.33 -222.12,-558.43 -235.08,-571.39 -6.39,-6.41 -157.33,-17.19 -338.5,-23.68l-325.54 -12.96 0 77.65z"/>
  </g>
 </g>
</svg>
